<?xml version="1.0" encoding="utf-8" standalone="no"?>
<!DOCTYPE svg PUBLIC "-//W3C//DTD SVG 1.1//EN"
  "http://www.w3.org/Graphics/SVG/1.1/DTD/svg11.dtd">
<!-- Created with matplotlib (https://matplotlib.org/) -->
<svg height="687.6pt" version="1.1" viewBox="0 0 1330.56 687.6" width="1330.56pt" xmlns="http://www.w3.org/2000/svg" xmlns:xlink="http://www.w3.org/1999/xlink">
 <defs>
  <style type="text/css">
*{stroke-linecap:butt;stroke-linejoin:round;}
  </style>
 </defs>
 <g id="figure_1">
  <g id="patch_1">
   <path d="M 0 687.6 
L 1330.56 687.6 
L 1330.56 0 
L 0 0 
z
" style="fill:#ffffff;"/>
  </g>
  <g id="axes_1">
   <g id="patch_2">
    <path d="M 166.32 611.964 
L 1197.504 611.964 
L 1197.504 82.512 
L 166.32 82.512 
z
" style="fill:#ffffff;"/>
   </g>
   <g id="PolyCollection_1">
    <defs>
     <path d="M 166.32 -410.089886 
L 166.32 -359.914255 
L 181.78776 -417.21909 
L 197.25552 -408.049853 
L 212.72328 -443.137976 
L 228.19104 -414.782491 
L 243.6588 -449.366824 
L 259.12656 -447.646775 
L 274.59432 -437.445522 
L 290.06208 -423.08762 
L 305.52984 -443.137976 
L 320.9976 -451.979498 
L 336.46536 -448.955639 
L 351.93312 -455.857266 
L 367.40088 -449.161231 
L 382.86864 -448.003009 
L 398.3364 -449.628419 
L 413.80416 -467.055211 
L 429.27192 -463.489615 
L 444.73968 -478.229184 
L 460.20744 -474.076619 
L 475.6752 -464.571277 
L 491.14296 -478.229184 
L 506.61072 -470.842115 
L 522.07848 -460.826364 
L 537.54624 -460.826364 
L 553.014 -481.047451 
L 568.48176 -471.702139 
L 583.94952 -428.398408 
L 599.41728 -476.568241 
L 614.88504 -479.512905 
L 630.3528 -475.425226 
L 645.82056 -476.894886 
L 661.28832 -472.918397 
L 676.75608 -460.009831 
L 692.22384 -455.448114 
L 707.6916 -481.654074 
L 723.15936 -481.654074 
L 738.62712 -491.248704 
L 754.09488 -460.826364 
L 769.56264 -465.253562 
L 785.0304 -476.714728 
L 800.49816 -451.979498 
L 815.96592 -448.363326 
L 831.43368 -456.668455 
L 846.90144 -445.424006 
L 862.3692 -477.930986 
L 877.83696 -487.882921 
L 893.30472 -481.654074 
L 908.77248 -479.507561 
L 924.24024 -481.654074 
L 939.708 -494.185011 
L 955.17576 -500.340615 
L 970.64352 -471.482409 
L 986.11128 -465.473292 
L 1001.57904 -489.35258 
L 1017.0468 -464.110547 
L 1032.51456 -460.826364 
L 1047.98232 -475.425226 
L 1063.45008 -452.268791 
L 1078.91784 -472.467525 
L 1094.3856 -498.992008 
L 1109.85336 -485.879882 
L 1125.32112 -455.595671 
L 1140.78888 -475.350913 
L 1156.25664 -475.425226 
L 1171.7244 -491.604938 
L 1187.19216 -474.076619 
L 1187.19216 -495.250628 
L 1187.19216 -495.250628 
L 1171.7244 -515.095391 
L 1156.25664 -485.596891 
L 1140.78888 -510.586593 
L 1125.32112 -455.595671 
L 1109.85336 -491.752495 
L 1094.3856 -520.166016 
L 1078.91784 -505.164852 
L 1063.45008 -487.990503 
L 1047.98232 -485.596891 
L 1032.51456 -487.738059 
L 1017.0468 -484.453876 
L 1001.57904 -504.890055 
L 986.11128 -483.091132 
L 970.64352 -501.997403 
L 955.17576 -510.512279 
L 939.708 -500.057624 
L 924.24024 -491.825738 
L 908.77248 -510.58251 
L 893.30472 -491.825738 
L 877.83696 -498.054585 
L 862.3692 -495.548826 
L 846.90144 -465.767335 
L 831.43368 -487.743404 
L 815.96592 -479.438274 
L 800.49816 -467.516972 
L 785.0304 -488.459955 
L 769.56264 -495.768556 
L 754.09488 -487.738059 
L 738.62712 -502.993931 
L 723.15936 -491.825738 
L 707.6916 -491.825738 
L 692.22384 -484.81118 
L 676.75608 -492.707158 
L 661.28832 -496.40885 
L 645.82056 -492.432361 
L 630.3528 -485.596891 
L 614.88504 -506.4246 
L 599.41728 -496.911571 
L 583.94952 -449.572416 
L 568.48176 -489.319979 
L 553.014 -496.584925 
L 537.54624 -487.738059 
L 522.07848 -487.738059 
L 506.61072 -494.332568 
L 491.14296 -499.403192 
L 475.6752 -508.908535 
L 460.20744 -495.250628 
L 444.73968 -499.403192 
L 429.27192 -505.837632 
L 413.80416 -493.966906 
L 398.3364 -482.325746 
L 382.86864 -471.493462 
L 367.40088 -470.33524 
L 351.93312 -488.554593 
L 336.46536 -491.303656 
L 320.9976 -467.516972 
L 305.52984 -443.137976 
L 290.06208 -446.578074 
L 274.59432 -452.982996 
L 259.12656 -459.392002 
L 243.6588 -449.366824 
L 228.19104 -438.272944 
L 212.72328 -443.137976 
L 197.25552 -449.158147 
L 181.78776 -448.294039 
L 166.32 -410.089886 
z
" id="m1e1e125b50" style="stroke:#8497f4;stroke-opacity:0.2;"/>
    </defs>
    <g clip-path="url(#pd7300fa988)">
     <use style="fill:#8497f4;fill-opacity:0.2;stroke:#8497f4;stroke-opacity:0.2;" x="0" xlink:href="#m1e1e125b50" y="687.6"/>
    </g>
   </g>
   <g id="PolyCollection_2">
    <defs>
     <path d="M 166.32 -299.874494 
L 166.32 36.483247 
L 181.78776 -318.561035 
L 197.25552 -405.764894 
L 212.72328 -411.993741 
L 228.19104 -399.536047 
L 243.6588 -443.137976 
L 259.12656 -424.451435 
L 274.59432 -430.680282 
L 290.06208 -430.680282 
L 305.52984 -455.595671 
L 320.9976 -449.366824 
L 336.46536 -461.824518 
L 351.93312 -411.993741 
L 367.40088 -449.366824 
L 382.86864 -468.053365 
L 398.3364 -399.536047 
L 413.80416 -449.366824 
L 429.27192 -355.934118 
L 444.73968 -250.043718 
L 460.20744 -137.924471 
L 475.6752 -455.595671 
L 491.14296 -50.720612 
L 506.61072 -461.824518 
L 522.07848 -113.009082 
L 537.54624 -225.128329 
L 553.014 -237.586024 
L 568.48176 -299.874494 
L 583.94952 -443.137976 
L 599.41728 -436.909129 
L 614.88504 -106.780235 
L 630.3528 -187.755247 
L 645.82056 -212.670635 
L 661.28832 -75.636 
L 676.75608 -150.382165 
L 692.22384 -274.959106 
L 707.6916 -187.755247 
L 723.15936 -175.297553 
L 738.62712 -430.680282 
L 754.09488 -443.137976 
L 769.56264 -436.909129 
L 785.0304 -162.839859 
L 800.49816 -306.103341 
L 815.96592 -331.018729 
L 831.43368 -343.476424 
L 846.90144 -237.586024 
L 862.3692 -436.909129 
L 877.83696 -387.078353 
L 893.30472 -405.764894 
L 908.77248 -455.595671 
L 924.24024 -424.451435 
L 939.708 -411.993741 
L 955.17576 -443.137976 
L 970.64352 -443.137976 
L 986.11128 -424.451435 
L 1001.57904 -443.137976 
L 1017.0468 -411.993741 
L 1032.51456 -449.366824 
L 1047.98232 -411.993741 
L 1063.45008 -405.764894 
L 1078.91784 -399.536047 
L 1094.3856 -399.536047 
L 1109.85336 -418.222588 
L 1125.32112 -399.536047 
L 1140.78888 -399.536047 
L 1156.25664 -411.993741 
L 1171.7244 -405.764894 
L 1187.19216 -418.222588 
L 1187.19216 -418.222588 
L 1187.19216 -418.222588 
L 1171.7244 -411.993741 
L 1156.25664 -436.909129 
L 1140.78888 -411.993741 
L 1125.32112 -424.451435 
L 1109.85336 -418.222588 
L 1094.3856 -405.764894 
L 1078.91784 -405.764894 
L 1063.45008 -461.824518 
L 1047.98232 -443.137976 
L 1032.51456 -505.426447 
L 1017.0468 -474.282212 
L 1001.57904 -474.282212 
L 986.11128 -424.451435 
L 970.64352 -474.282212 
L 955.17576 -449.366824 
L 939.708 -455.595671 
L 924.24024 -461.824518 
L 908.77248 -461.824518 
L 893.30472 -480.511059 
L 877.83696 -399.536047 
L 862.3692 -461.824518 
L 846.90144 -449.366824 
L 831.43368 -418.222588 
L 815.96592 -461.824518 
L 800.49816 -461.824518 
L 785.0304 -449.366824 
L 769.56264 -492.968753 
L 754.09488 -449.366824 
L 738.62712 -480.511059 
L 723.15936 -318.561035 
L 707.6916 -405.764894 
L 692.22384 -449.366824 
L 676.75608 -480.511059 
L 661.28832 -449.366824 
L 645.82056 -505.426447 
L 630.3528 -436.909129 
L 614.88504 -411.993741 
L 599.41728 -443.137976 
L 583.94952 -461.824518 
L 568.48176 -405.764894 
L 553.014 -443.137976 
L 537.54624 -461.824518 
L 522.07848 -387.078353 
L 506.61072 -474.282212 
L 491.14296 -461.824518 
L 475.6752 -455.595671 
L 460.20744 -492.968753 
L 444.73968 -293.645647 
L 429.27192 -505.426447 
L 413.80416 -474.282212 
L 398.3364 -486.739906 
L 382.86864 -474.282212 
L 367.40088 -468.053365 
L 351.93312 -461.824518 
L 336.46536 -486.739906 
L 320.9976 -474.282212 
L 305.52984 -455.595671 
L 290.06208 -455.595671 
L 274.59432 -443.137976 
L 259.12656 -424.451435 
L 243.6588 -449.366824 
L 228.19104 -424.451435 
L 212.72328 -443.137976 
L 197.25552 -411.993741 
L 181.78776 -399.536047 
L 166.32 -299.874494 
z
" id="m6aaedc3db2" style="stroke:#30eab2;stroke-opacity:0.2;"/>
    </defs>
    <g clip-path="url(#pd7300fa988)">
     <use style="fill:#30eab2;fill-opacity:0.2;stroke:#30eab2;stroke-opacity:0.2;" x="0" xlink:href="#m6aaedc3db2" y="687.6"/>
    </g>
   </g>
   <g id="PolyCollection_3">
    <defs>
     <path d="M 166.32 -318.561035 
L 166.32 -306.103341 
L 181.78776 -411.993741 
L 197.25552 -393.3072 
L 212.72328 -411.993741 
L 228.19104 -430.680282 
L 243.6588 -424.451435 
L 259.12656 -430.680282 
L 274.59432 -418.222588 
L 290.06208 -461.824518 
L 305.52984 -455.595671 
L 320.9976 -455.595671 
L 336.46536 -455.595671 
L 351.93312 -468.053365 
L 367.40088 -461.824518 
L 382.86864 -468.053365 
L 398.3364 -455.595671 
L 413.80416 -443.137976 
L 429.27192 -455.595671 
L 444.73968 -474.282212 
L 460.20744 -461.824518 
L 475.6752 -474.282212 
L 491.14296 -461.824518 
L 506.61072 -468.053365 
L 522.07848 -461.824518 
L 537.54624 -449.366824 
L 553.014 -461.824518 
L 568.48176 -480.511059 
L 583.94952 -474.282212 
L 599.41728 -430.680282 
L 614.88504 -474.282212 
L 630.3528 -492.968753 
L 645.82056 -449.366824 
L 661.28832 -443.137976 
L 676.75608 -455.595671 
L 692.22384 -486.739906 
L 707.6916 -480.511059 
L 723.15936 -468.053365 
L 738.62712 -474.282212 
L 754.09488 -468.053365 
L 769.56264 -468.053365 
L 785.0304 -480.511059 
L 800.49816 -436.909129 
L 815.96592 -461.824518 
L 831.43368 -468.053365 
L 846.90144 -468.053365 
L 862.3692 -468.053365 
L 877.83696 -405.764894 
L 893.30472 -492.968753 
L 908.77248 -474.282212 
L 924.24024 -505.426447 
L 939.708 -461.824518 
L 955.17576 -436.909129 
L 970.64352 -480.511059 
L 986.11128 -480.511059 
L 1001.57904 -486.739906 
L 1017.0468 -505.426447 
L 1032.51456 -492.968753 
L 1047.98232 -480.511059 
L 1063.45008 -436.909129 
L 1078.91784 -474.282212 
L 1094.3856 -499.1976 
L 1109.85336 -461.824518 
L 1125.32112 -480.511059 
L 1140.78888 -474.282212 
L 1156.25664 -480.511059 
L 1171.7244 -418.222588 
L 1187.19216 -468.053365 
L 1187.19216 -480.511059 
L 1187.19216 -480.511059 
L 1171.7244 -430.680282 
L 1156.25664 -499.1976 
L 1140.78888 -480.511059 
L 1125.32112 -486.739906 
L 1109.85336 -492.968753 
L 1094.3856 -511.655294 
L 1078.91784 -492.968753 
L 1063.45008 -474.282212 
L 1047.98232 -492.968753 
L 1032.51456 -511.655294 
L 1017.0468 -517.884141 
L 1001.57904 -505.426447 
L 986.11128 -499.1976 
L 970.64352 -499.1976 
L 955.17576 -486.739906 
L 939.708 -492.968753 
L 924.24024 -505.426447 
L 908.77248 -480.511059 
L 893.30472 -499.1976 
L 877.83696 -455.595671 
L 862.3692 -505.426447 
L 846.90144 -480.511059 
L 831.43368 -486.739906 
L 815.96592 -511.655294 
L 800.49816 -486.739906 
L 785.0304 -499.1976 
L 769.56264 -505.426447 
L 754.09488 -468.053365 
L 738.62712 -486.739906 
L 723.15936 -499.1976 
L 707.6916 -499.1976 
L 692.22384 -492.968753 
L 676.75608 -461.824518 
L 661.28832 -474.282212 
L 645.82056 -492.968753 
L 630.3528 -511.655294 
L 614.88504 -492.968753 
L 599.41728 -455.595671 
L 583.94952 -486.739906 
L 568.48176 -499.1976 
L 553.014 -461.824518 
L 537.54624 -480.511059 
L 522.07848 -468.053365 
L 506.61072 -486.739906 
L 491.14296 -480.511059 
L 475.6752 -492.968753 
L 460.20744 -468.053365 
L 444.73968 -492.968753 
L 429.27192 -461.824518 
L 413.80416 -449.366824 
L 398.3364 -461.824518 
L 382.86864 -474.282212 
L 367.40088 -468.053365 
L 351.93312 -468.053365 
L 336.46536 -461.824518 
L 320.9976 -474.282212 
L 305.52984 -455.595671 
L 290.06208 -461.824518 
L 274.59432 -418.222588 
L 259.12656 -436.909129 
L 243.6588 -436.909129 
L 228.19104 -430.680282 
L 212.72328 -443.137976 
L 197.25552 -399.536047 
L 181.78776 -436.909129 
L 166.32 -318.561035 
z
" id="m46f9d3bf00" style="stroke:#ff8ac4;stroke-opacity:0.2;"/>
    </defs>
    <g clip-path="url(#pd7300fa988)">
     <use style="fill:#ff8ac4;fill-opacity:0.2;stroke:#ff8ac4;stroke-opacity:0.2;" x="0" xlink:href="#m46f9d3bf00" y="687.6"/>
    </g>
   </g>
   <g id="PolyCollection_4">
    <defs>
     <path d="M 166.32 -312.332188 
L 166.32 -287.4168 
L 181.78776 -424.451435 
L 197.25552 -430.680282 
L 212.72328 -405.764894 
L 228.19104 -430.680282 
L 243.6588 -443.137976 
L 259.12656 -424.451435 
L 274.59432 -443.137976 
L 290.06208 -424.451435 
L 305.52984 -474.282212 
L 320.9976 -468.053365 
L 336.46536 -468.053365 
L 351.93312 -455.595671 
L 367.40088 -461.824518 
L 382.86864 -486.739906 
L 398.3364 -474.282212 
L 413.80416 -461.824518 
L 429.27192 -468.053365 
L 444.73968 -480.511059 
L 460.20744 -480.511059 
L 475.6752 -461.824518 
L 491.14296 -436.909129 
L 506.61072 -474.282212 
L 522.07848 -468.053365 
L 537.54624 -474.282212 
L 553.014 -505.426447 
L 568.48176 -492.968753 
L 583.94952 -443.137976 
L 599.41728 -486.739906 
L 614.88504 -499.1976 
L 630.3528 -455.595671 
L 645.82056 -511.655294 
L 661.28832 -461.824518 
L 676.75608 -455.595671 
L 692.22384 -480.511059 
L 707.6916 -486.739906 
L 723.15936 -443.137976 
L 738.62712 -455.595671 
L 754.09488 -474.282212 
L 769.56264 -492.968753 
L 785.0304 -461.824518 
L 800.49816 -486.739906 
L 815.96592 -499.1976 
L 831.43368 -492.968753 
L 846.90144 -231.357176 
L 862.3692 -505.426447 
L 877.83696 -474.282212 
L 893.30472 -461.824518 
L 908.77248 -268.730259 
L 924.24024 -486.739906 
L 939.708 -468.053365 
L 955.17576 -455.595671 
L 970.64352 -492.968753 
L 986.11128 -461.824518 
L 1001.57904 -492.968753 
L 1017.0468 -474.282212 
L 1032.51456 -461.824518 
L 1047.98232 -524.112988 
L 1063.45008 -468.053365 
L 1078.91784 -455.595671 
L 1094.3856 -455.595671 
L 1109.85336 -449.366824 
L 1125.32112 -468.053365 
L 1140.78888 -455.595671 
L 1156.25664 -486.739906 
L 1171.7244 -449.366824 
L 1187.19216 -474.282212 
L 1187.19216 -580.172612 
L 1187.19216 -580.172612 
L 1171.7244 -455.595671 
L 1156.25664 -617.545694 
L 1140.78888 -611.316847 
L 1125.32112 -561.486071 
L 1109.85336 -511.655294 
L 1094.3856 -524.112988 
L 1078.91784 -474.282212 
L 1063.45008 -492.968753 
L 1047.98232 -549.028376 
L 1032.51456 -468.053365 
L 1017.0468 -617.545694 
L 1001.57904 -580.172612 
L 986.11128 -486.739906 
L 970.64352 -542.799529 
L 955.17576 -517.884141 
L 939.708 -492.968753 
L 924.24024 -542.799529 
L 908.77248 -430.680282 
L 893.30472 -511.655294 
L 877.83696 -505.426447 
L 862.3692 -549.028376 
L 846.90144 -499.1976 
L 831.43368 -499.1976 
L 815.96592 -499.1976 
L 800.49816 -505.426447 
L 785.0304 -480.511059 
L 769.56264 -511.655294 
L 754.09488 -517.884141 
L 738.62712 -492.968753 
L 723.15936 -461.824518 
L 707.6916 -511.655294 
L 692.22384 -499.1976 
L 676.75608 -461.824518 
L 661.28832 -468.053365 
L 645.82056 -517.884141 
L 630.3528 -461.824518 
L 614.88504 -511.655294 
L 599.41728 -499.1976 
L 583.94952 -443.137976 
L 568.48176 -499.1976 
L 553.014 -505.426447 
L 537.54624 -474.282212 
L 522.07848 -468.053365 
L 506.61072 -486.739906 
L 491.14296 -468.053365 
L 475.6752 -486.739906 
L 460.20744 -486.739906 
L 444.73968 -480.511059 
L 429.27192 -492.968753 
L 413.80416 -486.739906 
L 398.3364 -492.968753 
L 382.86864 -492.968753 
L 367.40088 -474.282212 
L 351.93312 -474.282212 
L 336.46536 -480.511059 
L 320.9976 -492.968753 
L 305.52984 -480.511059 
L 290.06208 -436.909129 
L 274.59432 -443.137976 
L 259.12656 -430.680282 
L 243.6588 -449.366824 
L 228.19104 -430.680282 
L 212.72328 -424.451435 
L 197.25552 -449.366824 
L 181.78776 -455.595671 
L 166.32 -312.332188 
z
" id="m49c0b9734a" style="stroke:#f557ff;stroke-opacity:0.2;"/>
    </defs>
    <g clip-path="url(#pd7300fa988)">
     <use style="fill:#f557ff;fill-opacity:0.2;stroke:#f557ff;stroke-opacity:0.2;" x="0" xlink:href="#m49c0b9734a" y="687.6"/>
    </g>
   </g>
   <g id="PolyCollection_5">
    <defs>
     <path d="M 166.32 -318.561035 
L 166.32 -162.839859 
L 181.78776 -405.764894 
L 197.25552 -424.451435 
L 212.72328 -418.222588 
L 228.19104 -449.366824 
L 243.6588 -436.909129 
L 259.12656 -455.595671 
L 274.59432 -455.595671 
L 290.06208 -461.824518 
L 305.52984 -468.053365 
L 320.9976 -443.137976 
L 336.46536 -436.909129 
L 351.93312 -468.053365 
L 367.40088 -430.680282 
L 382.86864 -455.595671 
L 398.3364 -455.595671 
L 413.80416 -455.595671 
L 429.27192 -449.366824 
L 444.73968 -474.282212 
L 460.20744 -430.680282 
L 475.6752 -449.366824 
L 491.14296 -468.053365 
L 506.61072 -468.053365 
L 522.07848 -461.824518 
L 537.54624 -480.511059 
L 553.014 -486.739906 
L 568.48176 -486.739906 
L 583.94952 -449.366824 
L 599.41728 -474.282212 
L 614.88504 -461.824518 
L 630.3528 -486.739906 
L 645.82056 -474.282212 
L 661.28832 -480.511059 
L 676.75608 -511.655294 
L 692.22384 -499.1976 
L 707.6916 -468.053365 
L 723.15936 -492.968753 
L 738.62712 -430.680282 
L 754.09488 -461.824518 
L 769.56264 -486.739906 
L 785.0304 -480.511059 
L 800.49816 -480.511059 
L 815.96592 -474.282212 
L 831.43368 -468.053365 
L 846.90144 -468.053365 
L 862.3692 -499.1976 
L 877.83696 -480.511059 
L 893.30472 -480.511059 
L 908.77248 -436.909129 
L 924.24024 -486.739906 
L 939.708 -492.968753 
L 955.17576 -492.968753 
L 970.64352 -468.053365 
L 986.11128 -436.909129 
L 1001.57904 -411.993741 
L 1017.0468 -474.282212 
L 1032.51456 -468.053365 
L 1047.98232 -499.1976 
L 1063.45008 -511.655294 
L 1078.91784 -480.511059 
L 1094.3856 -480.511059 
L 1109.85336 -486.739906 
L 1125.32112 -511.655294 
L 1140.78888 -449.366824 
L 1156.25664 -492.968753 
L 1171.7244 -474.282212 
L 1187.19216 -474.282212 
L 1187.19216 -492.968753 
L 1187.19216 -492.968753 
L 1171.7244 -486.739906 
L 1156.25664 -499.1976 
L 1140.78888 -480.511059 
L 1125.32112 -517.884141 
L 1109.85336 -486.739906 
L 1094.3856 -499.1976 
L 1078.91784 -480.511059 
L 1063.45008 -511.655294 
L 1047.98232 -505.426447 
L 1032.51456 -480.511059 
L 1017.0468 -486.739906 
L 1001.57904 -468.053365 
L 986.11128 -499.1976 
L 970.64352 -474.282212 
L 955.17576 -505.426447 
L 939.708 -505.426447 
L 924.24024 -486.739906 
L 908.77248 -480.511059 
L 893.30472 -492.968753 
L 877.83696 -486.739906 
L 862.3692 -499.1976 
L 846.90144 -480.511059 
L 831.43368 -468.053365 
L 815.96592 -492.968753 
L 800.49816 -492.968753 
L 785.0304 -511.655294 
L 769.56264 -492.968753 
L 754.09488 -468.053365 
L 738.62712 -449.366824 
L 723.15936 -505.426447 
L 707.6916 -480.511059 
L 692.22384 -499.1976 
L 676.75608 -511.655294 
L 661.28832 -499.1976 
L 645.82056 -480.511059 
L 630.3528 -486.739906 
L 614.88504 -474.282212 
L 599.41728 -474.282212 
L 583.94952 -474.282212 
L 568.48176 -511.655294 
L 553.014 -492.968753 
L 537.54624 -486.739906 
L 522.07848 -505.426447 
L 506.61072 -486.739906 
L 491.14296 -480.511059 
L 475.6752 -474.282212 
L 460.20744 -511.655294 
L 444.73968 -492.968753 
L 429.27192 -480.511059 
L 413.80416 -474.282212 
L 398.3364 -480.511059 
L 382.86864 -474.282212 
L 367.40088 -474.282212 
L 351.93312 -492.968753 
L 336.46536 -468.053365 
L 320.9976 -499.1976 
L 305.52984 -474.282212 
L 290.06208 -474.282212 
L 274.59432 -461.824518 
L 259.12656 -468.053365 
L 243.6588 -449.366824 
L 228.19104 -455.595671 
L 212.72328 -424.451435 
L 197.25552 -436.909129 
L 181.78776 -405.764894 
L 166.32 -318.561035 
z
" id="m36577612be" style="stroke:#7d7d7d;stroke-opacity:0.2;"/>
    </defs>
    <g clip-path="url(#pd7300fa988)">
     <use style="fill:#7d7d7d;fill-opacity:0.2;stroke:#7d7d7d;stroke-opacity:0.2;" x="0" xlink:href="#m36577612be" y="687.6"/>
    </g>
   </g>
   <g id="matplotlib.axis_1">
    <g id="xtick_1">
     <g id="line2d_1">
      <defs>
       <path d="M 0 0 
L 0 3.5 
" id="medb98ff688" style="stroke:#000000;stroke-width:0.8;"/>
      </defs>
      <g>
       <use style="stroke:#000000;stroke-width:0.8;" x="166.32" xlink:href="#medb98ff688" y="611.964"/>
      </g>
     </g>
     <g id="text_1">
      <!-- $0$ -->
      <defs>
       <path d="M 42 31.640625 
C 42 37.75 41.90625 48.125 37.703125 56.109375 
C 34 63.109375 28.09375 65.59375 22.90625 65.59375 
C 18.09375 65.59375 12 63.40625 8.203125 56.203125 
C 4.203125 48.71875 3.796875 39.4375 3.796875 31.640625 
C 3.796875 25.953125 3.90625 17.28125 7 9.671875 
C 11.296875 -0.609375 19 -2 22.90625 -2 
C 27.5 -2 34.5 -0.109375 38.59375 9.375 
C 41.59375 16.28125 42 24.359375 42 31.640625 
z
M 22.90625 -0.40625 
C 16.5 -0.40625 12.703125 5.078125 11.296875 12.6875 
C 10.203125 18.5625 10.203125 27.15625 10.203125 32.75 
C 10.203125 40.4375 10.203125 46.828125 11.5 52.921875 
C 13.40625 61.390625 19 64 22.90625 64 
C 27 64 32.296875 61.296875 34.203125 53.125 
C 35.5 47.4375 35.59375 40.734375 35.59375 32.75 
C 35.59375 26.25 35.59375 18.265625 34.40625 12.375 
C 32.296875 1.484375 26.40625 -0.40625 22.90625 -0.40625 
z
" id="CMR17-48"/>
      </defs>
      <g transform="translate(160.837143 635.568405)scale(0.24 -0.24)">
       <use transform="scale(0.996264)" xlink:href="#CMR17-48"/>
      </g>
     </g>
    </g>
    <g id="xtick_2">
     <g id="line2d_2">
      <g>
       <use style="stroke:#000000;stroke-width:0.8;" x="295.218" xlink:href="#medb98ff688" y="611.964"/>
      </g>
     </g>
     <g id="text_2">
      <!-- $250$ -->
      <defs>
       <path d="M 41.703125 15.453125 
L 39.90625 15.453125 
C 38.90625 8.375 38.09375 7.171875 37.703125 6.5625 
C 37.203125 5.765625 30 5.765625 28.59375 5.765625 
L 9.40625 5.765625 
C 13 9.671875 20 16.75 28.5 24.953125 
C 34.59375 30.734375 41.703125 37.53125 41.703125 47.421875 
C 41.703125 59.21875 32.296875 66 21.796875 66 
C 10.796875 66 4.09375 56.3125 4.09375 47.34375 
C 4.09375 43.4375 7 42.9375 8.203125 42.9375 
C 9.203125 42.9375 12.203125 43.546875 12.203125 47.03125 
C 12.203125 50.109375 9.59375 51 8.203125 51 
C 7.59375 51 7 50.90625 6.59375 50.703125 
C 8.5 59.21875 14.296875 63.40625 20.40625 63.40625 
C 29.09375 63.40625 34.796875 56.515625 34.796875 47.421875 
C 34.796875 38.734375 29.703125 31.25 24 24.75 
L 4.09375 2.28125 
L 4.09375 0 
L 39.296875 0 
z
" id="CMR17-50"/>
       <path d="M 11.40625 57.6875 
C 12.40625 57.28125 16.5 56 20.703125 56 
C 30 56 35.09375 61.109375 38 64.0625 
C 38 64.953125 38 65.5 37.40625 65.5 
C 37.296875 65.5 37.09375 65.5 36.296875 65.046875 
C 32.796875 63.40625 28.703125 62.078125 23.703125 62.078125 
C 20.703125 62.078125 16.203125 62.484375 11.296875 64.671875 
C 10.203125 65.171875 10 65.171875 9.90625 65.171875 
C 9.40625 65.171875 9.296875 65.0625 9.296875 63.078125 
L 9.296875 34.421875 
C 9.296875 32.640625 9.296875 32.140625 10.296875 32.140625 
C 10.796875 32.140625 11 32.34375 11.5 33.03125 
C 14.703125 37.515625 19.09375 39.40625 24.09375 39.40625 
C 27.59375 39.40625 35.09375 37.21875 35.09375 20.140625 
C 35.09375 16.953125 35.09375 11.171875 32.09375 6.578125 
C 29.59375 2.484375 25.703125 0.390625 21.40625 0.390625 
C 14.796875 0.390625 8.09375 5 6.296875 12.71875 
C 6.703125 12.609375 7.5 12.421875 7.90625 12.421875 
C 9.203125 12.421875 11.703125 13.125 11.703125 16.21875 
C 11.703125 18.90625 9.796875 20 7.90625 20 
C 5.59375 20 4.09375 18.59375 4.09375 15.796875 
C 4.09375 7.09375 11 -2 21.59375 -2 
C 31.90625 -2 41.703125 6.875 41.703125 19.75 
C 41.703125 31.71875 33.90625 41 24.203125 41 
C 19.09375 41 14.796875 39.109375 11.40625 35.53125 
z
" id="CMR17-53"/>
      </defs>
      <g transform="translate(278.769428 635.568405)scale(0.24 -0.24)">
       <use transform="scale(0.996264)" xlink:href="#CMR17-50"/>
       <use transform="translate(45.690477 0)scale(0.996264)" xlink:href="#CMR17-53"/>
       <use transform="translate(91.380954 0)scale(0.996264)" xlink:href="#CMR17-48"/>
      </g>
     </g>
    </g>
    <g id="xtick_3">
     <g id="line2d_3">
      <g>
       <use style="stroke:#000000;stroke-width:0.8;" x="424.116" xlink:href="#medb98ff688" y="611.964"/>
      </g>
     </g>
     <g id="text_3">
      <!-- $500$ -->
      <g transform="translate(407.667428 635.568405)scale(0.24 -0.24)">
       <use transform="scale(0.996264)" xlink:href="#CMR17-53"/>
       <use transform="translate(45.690477 0)scale(0.996264)" xlink:href="#CMR17-48"/>
       <use transform="translate(91.380954 0)scale(0.996264)" xlink:href="#CMR17-48"/>
      </g>
     </g>
    </g>
    <g id="xtick_4">
     <g id="line2d_4">
      <g>
       <use style="stroke:#000000;stroke-width:0.8;" x="553.014" xlink:href="#medb98ff688" y="611.964"/>
      </g>
     </g>
     <g id="text_4">
      <!-- $750$ -->
      <defs>
       <path d="M 45.09375 61.578125 
L 45.09375 63.765625 
L 21.59375 63.765625 
C 9.90625 63.765625 9.703125 65.078125 9.296875 67 
L 7.5 67 
L 4.59375 48.34375 
L 6.40625 48.34375 
C 6.703125 50.234375 7.40625 55.3125 8.59375 57.203125 
C 9.203125 58 16.59375 58 18.296875 58 
L 40.296875 58 
L 29.203125 41.578125 
C 21.796875 30.53125 16.703125 15.609375 16.703125 2.578125 
C 16.703125 1.390625 16.703125 -2 20.296875 -2 
C 23.90625 -2 23.90625 1.390625 23.90625 2.671875 
L 23.90625 7.265625 
C 23.90625 23.5625 26.703125 34.3125 31.296875 41.1875 
z
" id="CMR17-55"/>
      </defs>
      <g transform="translate(536.565428 635.568405)scale(0.24 -0.24)">
       <use transform="scale(0.996264)" xlink:href="#CMR17-55"/>
       <use transform="translate(45.690477 0)scale(0.996264)" xlink:href="#CMR17-53"/>
       <use transform="translate(91.380954 0)scale(0.996264)" xlink:href="#CMR17-48"/>
      </g>
     </g>
    </g>
    <g id="xtick_5">
     <g id="line2d_5">
      <g>
       <use style="stroke:#000000;stroke-width:0.8;" x="681.912" xlink:href="#medb98ff688" y="611.964"/>
      </g>
     </g>
     <g id="text_5">
      <!-- $1000$ -->
      <defs>
       <path d="M 26.59375 63.40625 
C 26.59375 65.5 26.5 65.5 25.09375 65.5 
C 21.203125 61.1875 15.296875 59.796875 9.703125 59.796875 
C 9.40625 59.796875 8.90625 59.796875 8.796875 59.5 
C 8.703125 59.296875 8.703125 59.09375 8.703125 57 
C 11.796875 57 17 57.59375 21 59.984375 
L 21 7.203125 
C 21 3.6875 20.796875 2.5 12.203125 2.5 
L 9.203125 2.5 
L 9.203125 0 
C 14 0 19 0 23.796875 0 
C 28.59375 0 33.59375 0 38.40625 0 
L 38.40625 2.5 
L 35.40625 2.5 
C 26.796875 2.5 26.59375 3.59375 26.59375 7.15625 
z
" id="CMR17-49"/>
      </defs>
      <g transform="translate(659.980571 635.568405)scale(0.24 -0.24)">
       <use transform="scale(0.996264)" xlink:href="#CMR17-49"/>
       <use transform="translate(45.690477 0)scale(0.996264)" xlink:href="#CMR17-48"/>
       <use transform="translate(91.380954 0)scale(0.996264)" xlink:href="#CMR17-48"/>
       <use transform="translate(137.071431 0)scale(0.996264)" xlink:href="#CMR17-48"/>
      </g>
     </g>
    </g>
    <g id="xtick_6">
     <g id="line2d_6">
      <g>
       <use style="stroke:#000000;stroke-width:0.8;" x="810.81" xlink:href="#medb98ff688" y="611.964"/>
      </g>
     </g>
     <g id="text_6">
      <!-- $1250$ -->
      <g transform="translate(788.878571 635.568405)scale(0.24 -0.24)">
       <use transform="scale(0.996264)" xlink:href="#CMR17-49"/>
       <use transform="translate(45.690477 0)scale(0.996264)" xlink:href="#CMR17-50"/>
       <use transform="translate(91.380954 0)scale(0.996264)" xlink:href="#CMR17-53"/>
       <use transform="translate(137.071431 0)scale(0.996264)" xlink:href="#CMR17-48"/>
      </g>
     </g>
    </g>
    <g id="xtick_7">
     <g id="line2d_7">
      <g>
       <use style="stroke:#000000;stroke-width:0.8;" x="939.708" xlink:href="#medb98ff688" y="611.964"/>
      </g>
     </g>
     <g id="text_7">
      <!-- $1500$ -->
      <g transform="translate(917.776571 635.568405)scale(0.24 -0.24)">
       <use transform="scale(0.996264)" xlink:href="#CMR17-49"/>
       <use transform="translate(45.690477 0)scale(0.996264)" xlink:href="#CMR17-53"/>
       <use transform="translate(91.380954 0)scale(0.996264)" xlink:href="#CMR17-48"/>
       <use transform="translate(137.071431 0)scale(0.996264)" xlink:href="#CMR17-48"/>
      </g>
     </g>
    </g>
    <g id="xtick_8">
     <g id="line2d_8">
      <g>
       <use style="stroke:#000000;stroke-width:0.8;" x="1068.606" xlink:href="#medb98ff688" y="611.964"/>
      </g>
     </g>
     <g id="text_8">
      <!-- $1750$ -->
      <g transform="translate(1046.674571 635.568405)scale(0.24 -0.24)">
       <use transform="scale(0.996264)" xlink:href="#CMR17-49"/>
       <use transform="translate(45.690477 0)scale(0.996264)" xlink:href="#CMR17-55"/>
       <use transform="translate(91.380954 0)scale(0.996264)" xlink:href="#CMR17-53"/>
       <use transform="translate(137.071431 0)scale(0.996264)" xlink:href="#CMR17-48"/>
      </g>
     </g>
    </g>
    <g id="xtick_9">
     <g id="line2d_9">
      <g>
       <use style="stroke:#000000;stroke-width:0.8;" x="1197.504" xlink:href="#medb98ff688" y="611.964"/>
      </g>
     </g>
     <g id="text_9">
      <!-- $2000$ -->
      <g transform="translate(1175.572571 635.568405)scale(0.24 -0.24)">
       <use transform="scale(0.996264)" xlink:href="#CMR17-50"/>
       <use transform="translate(45.690477 0)scale(0.996264)" xlink:href="#CMR17-48"/>
       <use transform="translate(91.380954 0)scale(0.996264)" xlink:href="#CMR17-48"/>
       <use transform="translate(137.071431 0)scale(0.996264)" xlink:href="#CMR17-48"/>
      </g>
     </g>
    </g>
    <g id="text_10">
     <!-- Episode -->
     <defs>
      <path d="M 60.703125 25.234375 
L 58.90625 25.234375 
C 56.703125 10.5625 55.40625 2.59375 37.796875 2.59375 
L 23.90625 2.59375 
C 19.90625 2.59375 19.703125 3.078125 19.703125 6.46875 
L 19.703125 34 
L 29.09375 34 
C 38.5 34 39.40625 30.625 39.40625 22.34375 
L 41.203125 22.34375 
L 41.203125 48.140625 
L 39.40625 48.140625 
C 39.40625 39.953125 38.5 36.59375 29.09375 36.59375 
L 19.703125 36.59375 
L 19.703125 61.140625 
C 19.703125 64.5 19.90625 65 23.90625 65 
L 37.59375 65 
C 53.09375 65 54.90625 58.890625 56.296875 45.765625 
L 58.09375 45.765625 
L 55.703125 67.578125 
L 5.09375 67.578125 
L 5.09375 65 
C 12 65 13.09375 65 13.09375 60.53125 
L 13.09375 7.046875 
C 13.09375 2.59375 12 2.59375 5.09375 2.59375 
L 5.09375 0 
L 57.09375 0 
z
" id="CMR17-69"/>
      <path d="M 22 -16.609375 
C 15.59375 -16.609375 15.203125 -16.203125 15.203125 -12.328125 
L 15.203125 6.28125 
C 18.09375 2.09375 22.296875 -0.59375 27.59375 -0.59375 
C 37.59375 -0.59375 47.703125 8.171875 47.703125 21.6875 
C 47.703125 34.234375 39 43.78125 28.703125 43.78125 
C 22.703125 43.78125 17.796875 40.5 15 36.53125 
L 15 43.78125 
L 3.09375 42.6875 
L 3.09375 40.109375 
C 9 40.109375 9.90625 39.5 9.90625 34.734375 
L 9.90625 -12.328125 
C 9.90625 -16.109375 9.5 -16.609375 3.09375 -16.609375 
L 3.09375 -19.1875 
C 5.5 -19 9.90625 -19 12.5 -19 
C 15.09375 -19 19.59375 -19 22 -19.1875 
z
M 15.203125 31.4375 
C 15.203125 32.84375 15.203125 34.921875 19.09375 38.609375 
C 19.59375 39.015625 23 42 28 42 
C 35.296875 42 41.296875 32.9375 41.296875 21.59375 
C 41.296875 10.25 34.90625 1 27 1 
C 23.40625 1 19.5 2.6875 16.5 7.375 
C 15.203125 9.5625 15.203125 10.15625 15.203125 11.75 
z
" id="CMR17-112"/>
      <path d="M 15.5 61.078125 
C 15.5 63.265625 13.703125 65.15625 11.40625 65.15625 
C 9.203125 65.15625 7.296875 63.375 7.296875 61.078125 
C 7.296875 58.890625 9.09375 57 11.40625 57 
C 13.59375 57 15.5 58.796875 15.5 61.078125 
z
M 3.796875 42.28125 
L 3.796875 39.703125 
C 9.40625 39.703125 10.203125 39.09375 10.203125 34.328125 
L 10.203125 6.671875 
C 10.203125 2.875 9.796875 2.390625 3.40625 2.390625 
L 3.40625 -0.203125 
C 5.796875 0 10.09375 0 12.59375 0 
C 15 0 19.09375 0 21.40625 -0.203125 
L 21.40625 2.390625 
C 15.5 2.390625 15.296875 2.984375 15.296875 6.5625 
L 15.296875 43.375 
z
" id="CMR17-105"/>
      <path d="M 30.90625 42.140625 
C 30.90625 43.953125 30.796875 44.046875 30.203125 44.046875 
C 29.796875 44.046875 29.703125 43.953125 28.5 42.453125 
C 28.203125 42.046875 27.296875 41.03125 27 40.640625 
C 23.796875 44.046875 19.296875 44.046875 17.59375 44.046875 
C 6.5 44.046875 2.5 38.234375 2.5 32.4375 
C 2.5 23.40625 12.703125 21.328125 15.59375 20.703125 
C 21.90625 19.421875 24.09375 19.015625 26.203125 17.203125 
C 27.5 16.015625 29.703125 13.8125 29.703125 10.21875 
C 29.703125 6 27.296875 0.59375 18.09375 0.59375 
C 9.40625 0.59375 6.296875 7.1875 4.5 15.953125 
C 4.203125 17.34375 4.203125 17.453125 3.40625 17.453125 
C 2.59375 17.453125 2.5 17.34375 2.5 15.359375 
L 2.5 0.984375 
C 2.5 -0.796875 2.59375 -0.90625 3.203125 -0.90625 
C 3.703125 -0.90625 3.796875 -0.796875 4.296875 0 
C 4.90625 0.890625 6.40625 3.296875 7 4.3125 
C 9 1.609375 12.5 -1 18.09375 -1 
C 28 -1 33.296875 4.421875 33.296875 12.25 
C 33.296875 17.375 30.59375 20.078125 29.296875 21.28125 
C 26.296875 24.390625 22.796875 25.09375 18.59375 25.890625 
C 13.09375 27.109375 6.09375 28.515625 6.09375 34.640625 
C 6.09375 37.234375 7.5 42.765625 17.59375 42.765625 
C 28.296875 42.765625 28.90625 32.71875 29.09375 29.5 
C 29.203125 29 29.703125 28.890625 30 28.890625 
C 30.90625 28.890625 30.90625 29.203125 30.90625 30.90625 
z
" id="CMR17-115"/>
      <path d="M 43.09375 21.1875 
C 43.09375 34 33.796875 44 22.90625 44 
C 12 44 2.703125 34 2.703125 21.1875 
C 2.703125 8.609375 12 -1 22.90625 -1 
C 33.796875 -1 43.09375 8.609375 43.09375 21.1875 
z
M 22.90625 0.796875 
C 18.203125 0.796875 14.203125 3.59375 11.90625 7.5 
C 9.40625 11.984375 9.09375 17.59375 9.09375 22 
C 9.09375 26.203125 9.296875 31.40625 11.90625 35.90625 
C 13.90625 39.203125 17.796875 42.40625 22.90625 42.40625 
C 27.40625 42.40625 31.203125 39.90625 33.59375 36.40625 
C 36.703125 31.703125 36.703125 25.109375 36.703125 22 
C 36.703125 18.09375 36.5 12.109375 33.796875 7.296875 
C 31 2.703125 26.703125 0.796875 22.90625 0.796875 
z
" id="CMR17-111"/>
      <path d="M 29.203125 67.59375 
L 29.203125 65 
C 35.09375 65 36 64.40625 36 59.6875 
L 36 36.640625 
C 35.59375 37.140625 31.5 43.59375 23.40625 43.59375 
C 13.203125 43.59375 3.296875 34.5 3.296875 21.3125 
C 3.296875 8.203125 12.59375 -1 22.40625 -1 
C 30.90625 -1 35.296875 5.265625 35.796875 5.9375 
L 35.796875 -0.984375 
L 47.90625 -0.984375 
L 47.90625 2 
C 42 2 41.09375 2.59375 41.09375 7.390625 
L 41.09375 68.6875 
z
M 35.796875 11.796875 
C 35.796875 8.796875 34 6.09375 31.703125 4.09375 
C 28.296875 1.09375 24.90625 0.59375 23 0.59375 
C 20.09375 0.59375 9.703125 2.09375 9.703125 21.1875 
C 9.703125 40.8125 21.296875 42 23.90625 42 
C 28.5 42 32.203125 39.40625 34.5 35.796875 
C 35.796875 33.703125 35.796875 33.40625 35.796875 31.609375 
z
" id="CMR17-100"/>
      <path d="M 38.09375 23 
C 38.5 23.40625 38.5 23.609375 38.5 24.625 
C 38.5 34.96875 33.09375 44 21.703125 44 
C 11.09375 44 2.703125 33.890625 2.703125 21.609375 
C 2.703125 8.609375 12.203125 -1 22.796875 -1 
C 34 -1 38.40625 9.484375 38.40625 11.5625 
C 38.40625 12.25 37.796875 12.25 37.59375 12.25 
C 36.90625 12.25 36.796875 12.046875 36.40625 10.875 
C 34.203125 4.140625 28.703125 0.796875 23.5 0.796875 
C 19.203125 0.796875 14.90625 3.171875 12.203125 7.5 
C 9.09375 12.546875 9.09375 18.375 9.09375 23 
z
M 9.203125 24.5 
C 9.90625 39.140625 17.59375 42.40625 21.59375 42.40625 
C 28.40625 42.40625 33 35.890625 33.09375 24.5 
z
" id="CMR17-101"/>
     </defs>
     <g transform="translate(644.25264 660.823568)scale(0.24 -0.24)">
      <use transform="scale(0.996264)" xlink:href="#CMR17-69"/>
      <use transform="translate(62.586301 0)scale(0.996264)" xlink:href="#CMR17-112"/>
      <use transform="translate(113.48167 0)scale(0.996264)" xlink:href="#CMR17-105"/>
      <use transform="translate(138.352729 0)scale(0.996264)" xlink:href="#CMR17-115"/>
      <use transform="translate(174.154066 0)scale(0.996264)" xlink:href="#CMR17-111"/>
      <use transform="translate(222.446982 0)scale(0.996264)" xlink:href="#CMR17-100"/>
      <use transform="translate(273.342352 0)scale(0.996264)" xlink:href="#CMR17-101"/>
     </g>
    </g>
   </g>
   <g id="matplotlib.axis_2">
    <g id="ytick_1">
     <g id="line2d_10">
      <defs>
       <path d="M 0 0 
L -3.5 0 
" id="mbd861f53ee" style="stroke:#000000;stroke-width:0.8;"/>
      </defs>
      <g>
       <use style="stroke:#000000;stroke-width:0.8;" x="166.32" xlink:href="#mbd861f53ee" y="611.964"/>
      </g>
     </g>
     <g id="text_11">
      <!-- $-60$ -->
      <defs>
       <path d="M 65.90625 23 
C 67.59375 23 69.40625 23 69.40625 25 
C 69.40625 27 67.59375 27 65.90625 27 
L 11.796875 27 
C 10.09375 27 8.296875 27 8.296875 25 
C 8.296875 23 10.09375 23 11.796875 23 
z
" id="CMSY10-0"/>
       <path d="M 10.59375 34 
C 10.59375 57.65625 21.796875 63 28.296875 63 
C 30.40625 63 35.5 62.640625 37.5 59 
C 35.90625 59 32.90625 59 32.90625 55.515625 
C 32.90625 52.828125 35.09375 51.921875 36.5 51.921875 
C 37.40625 51.921875 40.09375 52.3125 40.09375 55.625 
C 40.09375 61.78125 35.09375 65.296875 28.203125 65.296875 
C 16.296875 65.296875 3.796875 52.96875 3.796875 31 
C 3.796875 3.953125 15.09375 -2 23.09375 -2 
C 32.796875 -2 42 6.671875 42 20.046875 
C 42 32.515625 33.90625 41.59375 23.703125 41.59375 
C 17.59375 41.59375 13.09375 37.609375 10.59375 30.625 
z
M 23.09375 0.390625 
C 10.796875 0.390625 10.796875 18.75 10.796875 22.4375 
C 10.796875 29.625 14.203125 40 23.5 40 
C 25.203125 40 30.09375 40 33.40625 33.125 
C 35.203125 29.21875 35.203125 25.140625 35.203125 20.140625 
C 35.203125 14.75 35.203125 10.78125 33.09375 6.78125 
C 30.90625 2.671875 27.703125 0.390625 23.09375 0.390625 
z
" id="CMR17-54"/>
      </defs>
      <g transform="translate(118.791577 620.266203)scale(0.24 -0.24)">
       <use transform="scale(0.996264)" xlink:href="#CMSY10-0"/>
       <use transform="translate(77.487468 0)scale(0.996264)" xlink:href="#CMR17-54"/>
       <use transform="translate(123.177945 0)scale(0.996264)" xlink:href="#CMR17-48"/>
      </g>
     </g>
    </g>
    <g id="ytick_2">
     <g id="line2d_11">
      <g>
       <use style="stroke:#000000;stroke-width:0.8;" x="166.32" xlink:href="#mbd861f53ee" y="549.675529"/>
      </g>
     </g>
     <g id="text_12">
      <!-- $-50$ -->
      <g transform="translate(118.791577 557.977732)scale(0.24 -0.24)">
       <use transform="scale(0.996264)" xlink:href="#CMSY10-0"/>
       <use transform="translate(77.487468 0)scale(0.996264)" xlink:href="#CMR17-53"/>
       <use transform="translate(123.177945 0)scale(0.996264)" xlink:href="#CMR17-48"/>
      </g>
     </g>
    </g>
    <g id="ytick_3">
     <g id="line2d_12">
      <g>
       <use style="stroke:#000000;stroke-width:0.8;" x="166.32" xlink:href="#mbd861f53ee" y="487.387059"/>
      </g>
     </g>
     <g id="text_13">
      <!-- $-40$ -->
      <defs>
       <path d="M 33.59375 64.40625 
C 33.59375 66.5 33.5 66.5 31.703125 66.5 
L 2 19.59375 
L 2 17 
L 27.796875 17 
L 27.796875 7.140625 
C 27.796875 3.5 27.59375 2.5 20.59375 2.5 
L 18.703125 2.5 
L 18.703125 0 
C 21.90625 0 27.296875 0 30.703125 0 
C 34.09375 0 39.5 0 42.703125 0 
L 42.703125 2.5 
L 40.796875 2.5 
C 33.796875 2.5 33.59375 3.5 33.59375 7.140625 
L 33.59375 17 
L 43.796875 17 
L 43.796875 19.59375 
L 33.59375 19.59375 
z
M 28.09375 57.859375 
L 28.09375 19.59375 
L 4 19.59375 
z
" id="CMR17-52"/>
      </defs>
      <g transform="translate(118.791577 495.689261)scale(0.24 -0.24)">
       <use transform="scale(0.996264)" xlink:href="#CMSY10-0"/>
       <use transform="translate(77.487468 0)scale(0.996264)" xlink:href="#CMR17-52"/>
       <use transform="translate(123.177945 0)scale(0.996264)" xlink:href="#CMR17-48"/>
      </g>
     </g>
    </g>
    <g id="ytick_4">
     <g id="line2d_13">
      <g>
       <use style="stroke:#000000;stroke-width:0.8;" x="166.32" xlink:href="#mbd861f53ee" y="425.098588"/>
      </g>
     </g>
     <g id="text_14">
      <!-- $-30$ -->
      <defs>
       <path d="M 22.09375 33.703125 
C 31 33.703125 34.90625 25.96875 34.90625 17.03125 
C 34.90625 5 28.5 0.390625 22.703125 0.390625 
C 17.40625 0.390625 8.796875 3.03125 6.09375 10.828125 
C 6.59375 10.625 7.09375 10.625 7.59375 10.625 
C 10 10.625 11.796875 12.21875 11.796875 14.8125 
C 11.796875 17.703125 9.59375 19 7.59375 19 
C 5.90625 19 3.296875 18.203125 3.296875 14.46875 
C 3.296875 5.234375 12.296875 -2 22.90625 -2 
C 34 -2 42.5 6.71875 42.5 16.953125 
C 42.5 26.671875 34.5 33.703125 25 34.796875 
C 32.59375 36.375 39.90625 43.0625 39.90625 52.015625 
C 39.90625 59.6875 32 65.296875 23 65.296875 
C 13.90625 65.296875 5.90625 59.828125 5.90625 52.015625 
C 5.90625 48.59375 8.5 48 9.796875 48 
C 11.90625 48 13.703125 49.296875 13.703125 51.890625 
C 13.703125 54.46875 11.90625 55.765625 9.796875 55.765625 
C 9.40625 55.765625 8.90625 55.765625 8.5 55.578125 
C 11.40625 61.859375 19.296875 63 22.796875 63 
C 26.296875 63 32.90625 61.328125 32.90625 51.875 
C 32.90625 49.109375 32.5 44.1875 29.09375 39.84375 
C 26.09375 36 22.703125 36 19.40625 35.6875 
C 18.90625 35.6875 16.59375 35.453125 16.203125 35.453125 
C 15.5 35.359375 15.09375 35.265625 15.09375 34.5 
C 15.09375 33.796875 15.203125 33.703125 17.203125 33.703125 
z
" id="CMR17-51"/>
      </defs>
      <g transform="translate(118.791577 433.400791)scale(0.24 -0.24)">
       <use transform="scale(0.996264)" xlink:href="#CMSY10-0"/>
       <use transform="translate(77.487468 0)scale(0.996264)" xlink:href="#CMR17-51"/>
       <use transform="translate(123.177945 0)scale(0.996264)" xlink:href="#CMR17-48"/>
      </g>
     </g>
    </g>
    <g id="ytick_5">
     <g id="line2d_14">
      <g>
       <use style="stroke:#000000;stroke-width:0.8;" x="166.32" xlink:href="#mbd861f53ee" y="362.810118"/>
      </g>
     </g>
     <g id="text_15">
      <!-- $-20$ -->
      <g transform="translate(118.791577 371.11232)scale(0.24 -0.24)">
       <use transform="scale(0.996264)" xlink:href="#CMSY10-0"/>
       <use transform="translate(77.487468 0)scale(0.996264)" xlink:href="#CMR17-50"/>
       <use transform="translate(123.177945 0)scale(0.996264)" xlink:href="#CMR17-48"/>
      </g>
     </g>
    </g>
    <g id="ytick_6">
     <g id="line2d_15">
      <g>
       <use style="stroke:#000000;stroke-width:0.8;" x="166.32" xlink:href="#mbd861f53ee" y="300.521647"/>
      </g>
     </g>
     <g id="text_16">
      <!-- $-10$ -->
      <g transform="translate(118.791577 308.82385)scale(0.24 -0.24)">
       <use transform="scale(0.996264)" xlink:href="#CMSY10-0"/>
       <use transform="translate(77.487468 0)scale(0.996264)" xlink:href="#CMR17-49"/>
       <use transform="translate(123.177945 0)scale(0.996264)" xlink:href="#CMR17-48"/>
      </g>
     </g>
    </g>
    <g id="ytick_7">
     <g id="line2d_16">
      <g>
       <use style="stroke:#000000;stroke-width:0.8;" x="166.32" xlink:href="#mbd861f53ee" y="238.233176"/>
      </g>
     </g>
     <g id="text_17">
      <!-- $0$ -->
      <g transform="translate(148.354285 246.535379)scale(0.24 -0.24)">
       <use transform="scale(0.996264)" xlink:href="#CMR17-48"/>
      </g>
     </g>
    </g>
    <g id="ytick_8">
     <g id="line2d_17">
      <g>
       <use style="stroke:#000000;stroke-width:0.8;" x="166.32" xlink:href="#mbd861f53ee" y="175.944706"/>
      </g>
     </g>
     <g id="text_18">
      <!-- $10$ -->
      <g transform="translate(137.388571 184.246908)scale(0.24 -0.24)">
       <use transform="scale(0.996264)" xlink:href="#CMR17-49"/>
       <use transform="translate(45.690477 0)scale(0.996264)" xlink:href="#CMR17-48"/>
      </g>
     </g>
    </g>
    <g id="ytick_9">
     <g id="line2d_18">
      <g>
       <use style="stroke:#000000;stroke-width:0.8;" x="166.32" xlink:href="#mbd861f53ee" y="113.656235"/>
      </g>
     </g>
     <g id="text_19">
      <!-- $20$ -->
      <g transform="translate(137.388571 121.958438)scale(0.24 -0.24)">
       <use transform="scale(0.996264)" xlink:href="#CMR17-50"/>
       <use transform="translate(45.690477 0)scale(0.996264)" xlink:href="#CMR17-48"/>
      </g>
     </g>
    </g>
    <g id="text_20">
     <!-- Beloning -->
     <defs>
      <path d="M 5.203125 68 
L 5.203125 65.40625 
C 12.09375 65.40625 13.203125 65.40625 13.203125 60.9375 
L 13.203125 7.0625 
C 13.203125 2.59375 12.09375 2.59375 5.203125 2.59375 
L 5.203125 0 
L 39.59375 0 
C 52.40625 0 60.703125 9.109375 60.703125 18.1875 
C 60.703125 27.203125 52.5 34.890625 41.796875 34.890625 
C 51.40625 36.8125 58.09375 43.296875 58.09375 51 
C 58.09375 59.40625 49.90625 68 37 68 
z
M 19.5 36 
L 19.5 61.515625 
C 19.5 64.921875 19.703125 65.40625 23.703125 65.40625 
L 36.5 65.40625 
C 46.40625 65.40625 50.796875 57.40625 50.796875 51.203125 
C 50.796875 43.609375 44.703125 36 33.90625 36 
z
M 23.703125 2.59375 
C 19.703125 2.59375 19.5 3.078125 19.5 6.453125 
L 19.5 34.40625 
L 38 34.40625 
C 48.296875 34.40625 53.296875 25.390625 53.296875 18.15625 
C 53.296875 10.921875 47.59375 2.59375 36.703125 2.59375 
z
" id="CMR17-66"/>
      <path d="M 15.296875 68.6875 
L 3.40625 67.59375 
L 3.40625 65 
C 9.296875 65 10.203125 64.40625 10.203125 59.640625 
L 10.203125 6.65625 
C 10.203125 2.875 9.796875 2.390625 3.40625 2.390625 
L 3.40625 -0.203125 
C 5.796875 0 10.203125 0 12.703125 0 
C 15.296875 0 19.703125 0 22.09375 -0.203125 
L 22.09375 2.390625 
C 15.703125 2.390625 15.296875 2.78125 15.296875 6.65625 
z
" id="CMR17-108"/>
      <path d="M 41.5 30.203125 
C 41.5 35.296875 40.5 43.59375 28.703125 43.59375 
C 20.796875 43.59375 16.703125 37.5 15.203125 33.5 
L 15.09375 33.5 
L 15.09375 43.59375 
L 3.296875 42.5 
L 3.296875 39.90625 
C 9.203125 39.90625 10.09375 39.296875 10.09375 34.5 
L 10.09375 6.6875 
C 10.09375 2.875 9.703125 2.390625 3.296875 2.390625 
L 3.296875 -0.203125 
C 5.703125 0 10.09375 0 12.703125 0 
C 15.296875 0 19.796875 0 22.203125 -0.203125 
L 22.203125 2.390625 
C 15.796875 2.390625 15.40625 2.78125 15.40625 6.6875 
L 15.40625 25.90625 
C 15.40625 35.109375 21 42 28 42 
C 35.40625 42 36.203125 35.40625 36.203125 30.59375 
L 36.203125 6.6875 
C 36.203125 2.875 35.796875 2.390625 29.40625 2.390625 
L 29.40625 -0.203125 
C 31.796875 0 36.203125 0 38.796875 0 
C 41.40625 0 45.90625 0 48.296875 -0.203125 
L 48.296875 2.390625 
C 41.90625 2.390625 41.5 2.78125 41.5 6.6875 
z
" id="CMR17-110"/>
      <path d="M 11.09375 18.1875 
C 13 16.6875 16.296875 15 20.296875 15 
C 28.203125 15 35 21.203125 35 29.5 
C 35 32.09375 34.203125 36.09375 31.203125 39.203125 
C 34 42.0625 38.09375 43 40.40625 43 
C 40.796875 43 41.40625 43 41.90625 42.71875 
C 41.5 42.625 40.59375 42.234375 40.59375 40.703125 
C 40.59375 39.484375 41.5 38.609375 42.796875 38.609375 
C 44.296875 38.609375 45.09375 39.578125 45.09375 40.84375 
C 45.09375 42.671875 43.59375 44.59375 40.40625 44.59375 
C 36.40625 44.59375 32.90625 42.78125 30.09375 40.3125 
C 27.09375 43.015625 23.5 44 20.296875 44 
C 12.40625 44 5.59375 37.796875 5.59375 29.5 
C 5.59375 23.78125 8.90625 20.1875 9.90625 19.1875 
C 6.90625 15.6875 6.90625 11.609375 6.90625 11.109375 
C 6.90625 8.515625 7.90625 4.71875 11.296875 2.625 
C 6.09375 1.328125 2 -2.640625 2 -7.59375 
C 2 -14.734375 11.5 -20 22.90625 -20 
C 33.90625 -20 43.796875 -14.9375 43.796875 -7.484375 
C 43.796875 6 29 6 21.296875 6 
C 19 6 14.90625 6 14.40625 6.109375 
C 11.296875 6.609375 9.203125 9.40625 9.203125 12.90625 
C 9.203125 13.796875 9.203125 16 11.09375 18.1875 
z
M 20.296875 16.6875 
C 11.5 16.6875 11.5 27.5 11.5 29.515625 
C 11.5 31.5 11.5 42.3125 20.296875 42.3125 
C 29.09375 42.3125 29.09375 31.5 29.09375 29.515625 
C 29.09375 27.5 29.09375 16.6875 20.296875 16.6875 
z
M 22.90625 -18.296875 
C 12.90625 -18.296875 6 -13.046875 6 -7.59375 
C 6 -4.515625 7.703125 -1.640625 9.90625 -0.0625 
C 12.40625 1.625 13.40625 1.625 20.203125 1.625 
C 28.40625 1.625 39.796875 1.625 39.796875 -7.59375 
C 39.796875 -13.046875 32.90625 -18.296875 22.90625 -18.296875 
z
" id="CMR17-103"/>
     </defs>
     <g transform="translate(110.14082 389.068585)rotate(-90)scale(0.24 -0.24)">
      <use transform="scale(0.996264)" xlink:href="#CMR17-66"/>
      <use transform="translate(65.188754 0)scale(0.996264)" xlink:href="#CMR17-101"/>
      <use transform="translate(105.674415 0)scale(0.996264)" xlink:href="#CMR17-108"/>
      <use transform="translate(130.545473 0)scale(0.996264)" xlink:href="#CMR17-111"/>
      <use transform="translate(176.235951 0)scale(0.996264)" xlink:href="#CMR17-110"/>
      <use transform="translate(227.13132 0)scale(0.996264)" xlink:href="#CMR17-105"/>
      <use transform="translate(252.002379 0)scale(0.996264)" xlink:href="#CMR17-110"/>
      <use transform="translate(302.897749 0)scale(0.996264)" xlink:href="#CMR17-103"/>
     </g>
    </g>
   </g>
   <g id="line2d_19">
    <path clip-path="url(#pd7300fa988)" d="M 166.32 302.597929 
L 181.78776 254.843435 
L 197.25552 258.996 
L 212.72328 244.462024 
L 228.19104 261.072282 
L 243.6588 238.233176 
L 259.12656 234.080612 
L 274.59432 242.385741 
L 290.06208 252.767153 
L 305.52984 244.462024 
L 320.9976 227.851765 
L 336.46536 217.470353 
L 351.93312 215.394071 
L 367.40088 227.851765 
L 382.86864 227.851765 
L 398.3364 221.622918 
L 413.80416 207.088941 
L 429.27192 202.936376 
L 444.73968 198.783812 
L 460.20744 202.936376 
L 475.6752 200.860094 
L 491.14296 198.783812 
L 506.61072 205.012659 
L 522.07848 213.317788 
L 537.54624 213.317788 
L 553.014 198.783812 
L 568.48176 207.088941 
L 583.94952 248.614588 
L 599.41728 200.860094 
L 614.88504 194.631247 
L 630.3528 207.088941 
L 645.82056 202.936376 
L 661.28832 202.936376 
L 676.75608 211.241506 
L 692.22384 217.470353 
L 707.6916 200.860094 
L 723.15936 200.860094 
L 738.62712 190.478682 
L 754.09488 213.317788 
L 769.56264 207.088941 
L 785.0304 205.012659 
L 800.49816 227.851765 
L 815.96592 223.6992 
L 831.43368 215.394071 
L 846.90144 232.004329 
L 862.3692 200.860094 
L 877.83696 194.631247 
L 893.30472 200.860094 
L 908.77248 192.554965 
L 924.24024 200.860094 
L 939.708 190.478682 
L 955.17576 182.173553 
L 970.64352 200.860094 
L 986.11128 213.317788 
L 1001.57904 190.478682 
L 1017.0468 213.317788 
L 1032.51456 213.317788 
L 1047.98232 207.088941 
L 1063.45008 217.470353 
L 1078.91784 198.783812 
L 1094.3856 178.020988 
L 1109.85336 198.783812 
L 1125.32112 232.004329 
L 1140.78888 194.631247 
L 1156.25664 207.088941 
L 1171.7244 184.249835 
L 1187.19216 202.936376 
" style="fill:none;stroke:#0000e0;stroke-linecap:square;stroke-width:1.5;"/>
   </g>
   <g id="line2d_20">
    <path clip-path="url(#pd7300fa988)" d="M 166.32 555.904376 
L 181.78776 328.551459 
L 197.25552 278.720682 
L 212.72328 260.034141 
L 228.19104 275.606259 
L 243.6588 241.3476 
L 259.12656 263.148565 
L 274.59432 250.690871 
L 290.06208 244.462024 
L 305.52984 232.004329 
L 320.9976 225.775482 
L 336.46536 213.317788 
L 351.93312 250.690871 
L 367.40088 228.889906 
L 382.86864 216.432212 
L 398.3364 244.462024 
L 413.80416 225.775482 
L 429.27192 256.919718 
L 444.73968 415.755318 
L 460.20744 372.153388 
L 475.6752 232.004329 
L 491.14296 431.327435 
L 506.61072 219.546635 
L 522.07848 437.556282 
L 537.54624 344.123576 
L 553.014 347.238 
L 568.48176 334.780306 
L 583.94952 235.118753 
L 599.41728 247.576447 
L 614.88504 428.213012 
L 630.3528 375.267812 
L 645.82056 328.551459 
L 661.28832 425.098588 
L 676.75608 372.153388 
L 692.22384 325.437035 
L 707.6916 390.839929 
L 723.15936 440.670706 
L 738.62712 232.004329 
L 754.09488 241.3476 
L 769.56264 222.661059 
L 785.0304 381.496659 
L 800.49816 303.636071 
L 815.96592 291.178376 
L 831.43368 306.750494 
L 846.90144 344.123576 
L 862.3692 238.233176 
L 877.83696 294.2928 
L 893.30472 244.462024 
L 908.77248 228.889906 
L 924.24024 244.462024 
L 939.708 253.805294 
L 955.17576 241.3476 
L 970.64352 228.889906 
L 986.11128 263.148565 
L 1001.57904 228.889906 
L 1017.0468 244.462024 
L 1032.51456 210.203365 
L 1047.98232 260.034141 
L 1063.45008 253.805294 
L 1078.91784 284.949529 
L 1094.3856 284.949529 
L 1109.85336 269.377412 
L 1125.32112 275.606259 
L 1140.78888 281.835106 
L 1156.25664 263.148565 
L 1171.7244 278.720682 
L 1187.19216 269.377412 
" style="fill:none;stroke:#30eab2;stroke-linecap:square;stroke-width:1.5;"/>
   </g>
   <g id="line2d_21">
    <path clip-path="url(#pd7300fa988)" d="M 166.32 375.267812 
L 181.78776 263.148565 
L 197.25552 291.178376 
L 212.72328 260.034141 
L 228.19104 256.919718 
L 243.6588 256.919718 
L 259.12656 253.805294 
L 274.59432 269.377412 
L 290.06208 225.775482 
L 305.52984 232.004329 
L 320.9976 222.661059 
L 336.46536 228.889906 
L 351.93312 219.546635 
L 367.40088 222.661059 
L 382.86864 216.432212 
L 398.3364 228.889906 
L 413.80416 241.3476 
L 429.27192 228.889906 
L 444.73968 203.974518 
L 460.20744 222.661059 
L 475.6752 203.974518 
L 491.14296 216.432212 
L 506.61072 210.203365 
L 522.07848 222.661059 
L 537.54624 222.661059 
L 553.014 225.775482 
L 568.48176 197.745671 
L 583.94952 207.088941 
L 599.41728 244.462024 
L 614.88504 203.974518 
L 630.3528 185.287976 
L 645.82056 216.432212 
L 661.28832 228.889906 
L 676.75608 228.889906 
L 692.22384 197.745671 
L 707.6916 197.745671 
L 723.15936 203.974518 
L 738.62712 207.088941 
L 754.09488 219.546635 
L 769.56264 200.860094 
L 785.0304 197.745671 
L 800.49816 225.775482 
L 815.96592 200.860094 
L 831.43368 210.203365 
L 846.90144 213.317788 
L 862.3692 200.860094 
L 877.83696 256.919718 
L 893.30472 191.516824 
L 908.77248 210.203365 
L 924.24024 182.173553 
L 939.708 210.203365 
L 955.17576 225.775482 
L 970.64352 197.745671 
L 986.11128 197.745671 
L 1001.57904 191.516824 
L 1017.0468 175.944706 
L 1032.51456 185.287976 
L 1047.98232 200.860094 
L 1063.45008 232.004329 
L 1078.91784 203.974518 
L 1094.3856 182.173553 
L 1109.85336 210.203365 
L 1125.32112 203.974518 
L 1140.78888 210.203365 
L 1156.25664 197.745671 
L 1171.7244 263.148565 
L 1187.19216 213.317788 
" style="fill:none;stroke:#500050;stroke-linecap:square;stroke-width:1.5;"/>
   </g>
   <g id="line2d_22">
    <path clip-path="url(#pd7300fa988)" d="M 166.32 387.725506 
L 181.78776 247.576447 
L 197.25552 247.576447 
L 212.72328 272.491835 
L 228.19104 256.919718 
L 243.6588 241.3476 
L 259.12656 260.034141 
L 274.59432 244.462024 
L 290.06208 256.919718 
L 305.52984 210.203365 
L 320.9976 207.088941 
L 336.46536 213.317788 
L 351.93312 222.661059 
L 367.40088 219.546635 
L 382.86864 197.745671 
L 398.3364 203.974518 
L 413.80416 213.317788 
L 429.27192 207.088941 
L 444.73968 207.088941 
L 460.20744 203.974518 
L 475.6752 213.317788 
L 491.14296 235.118753 
L 506.61072 207.088941 
L 522.07848 219.546635 
L 537.54624 213.317788 
L 553.014 182.173553 
L 568.48176 191.516824 
L 583.94952 244.462024 
L 599.41728 194.631247 
L 614.88504 182.173553 
L 630.3528 228.889906 
L 645.82056 172.830282 
L 661.28832 222.661059 
L 676.75608 228.889906 
L 692.22384 197.745671 
L 707.6916 188.4024 
L 723.15936 235.118753 
L 738.62712 213.317788 
L 754.09488 191.516824 
L 769.56264 185.287976 
L 785.0304 216.432212 
L 800.49816 191.516824 
L 815.96592 188.4024 
L 831.43368 191.516824 
L 846.90144 322.322612 
L 862.3692 160.372588 
L 877.83696 197.745671 
L 893.30472 200.860094 
L 908.77248 337.894729 
L 924.24024 172.830282 
L 939.708 207.088941 
L 955.17576 200.860094 
L 970.64352 169.715859 
L 986.11128 213.317788 
L 1001.57904 151.029318 
L 1017.0468 141.686047 
L 1032.51456 222.661059 
L 1047.98232 151.029318 
L 1063.45008 207.088941 
L 1078.91784 222.661059 
L 1094.3856 197.745671 
L 1109.85336 207.088941 
L 1125.32112 172.830282 
L 1140.78888 154.143741 
L 1156.25664 135.4572 
L 1171.7244 235.118753 
L 1187.19216 160.372588 
" style="fill:none;stroke:#ef00ff;stroke-linecap:square;stroke-width:1.5;"/>
   </g>
   <g id="line2d_23">
    <path clip-path="url(#pd7300fa988)" d="M 166.32 446.899553 
L 181.78776 281.835106 
L 197.25552 256.919718 
L 212.72328 266.262988 
L 228.19104 235.118753 
L 243.6588 244.462024 
L 259.12656 225.775482 
L 274.59432 228.889906 
L 290.06208 219.546635 
L 305.52984 216.432212 
L 320.9976 216.432212 
L 336.46536 235.118753 
L 351.93312 207.088941 
L 367.40088 235.118753 
L 382.86864 222.661059 
L 398.3364 219.546635 
L 413.80416 222.661059 
L 429.27192 222.661059 
L 444.73968 203.974518 
L 460.20744 216.432212 
L 475.6752 225.775482 
L 491.14296 213.317788 
L 506.61072 210.203365 
L 522.07848 203.974518 
L 537.54624 203.974518 
L 553.014 197.745671 
L 568.48176 188.4024 
L 583.94952 225.775482 
L 599.41728 213.317788 
L 614.88504 219.546635 
L 630.3528 200.860094 
L 645.82056 210.203365 
L 661.28832 197.745671 
L 676.75608 175.944706 
L 692.22384 188.4024 
L 707.6916 213.317788 
L 723.15936 188.4024 
L 738.62712 247.576447 
L 754.09488 222.661059 
L 769.56264 197.745671 
L 785.0304 191.516824 
L 800.49816 200.860094 
L 815.96592 203.974518 
L 831.43368 219.546635 
L 846.90144 213.317788 
L 862.3692 188.4024 
L 877.83696 203.974518 
L 893.30472 200.860094 
L 908.77248 228.889906 
L 924.24024 200.860094 
L 939.708 188.4024 
L 955.17576 188.4024 
L 970.64352 216.432212 
L 986.11128 219.546635 
L 1001.57904 247.576447 
L 1017.0468 207.088941 
L 1032.51456 213.317788 
L 1047.98232 185.287976 
L 1063.45008 175.944706 
L 1078.91784 207.088941 
L 1094.3856 197.745671 
L 1109.85336 200.860094 
L 1125.32112 172.830282 
L 1140.78888 222.661059 
L 1156.25664 191.516824 
L 1171.7244 207.088941 
L 1187.19216 203.974518 
" style="fill:none;stroke:#000000;stroke-linecap:square;stroke-width:1.5;"/>
   </g>
   <g id="patch_3">
    <path d="M 166.32 611.964 
L 166.32 82.512 
" style="fill:none;stroke:#000000;stroke-linecap:square;stroke-linejoin:miter;stroke-width:0.8;"/>
   </g>
   <g id="patch_4">
    <path d="M 1197.504 611.964 
L 1197.504 82.512 
" style="fill:none;stroke:#000000;stroke-linecap:square;stroke-linejoin:miter;stroke-width:0.8;"/>
   </g>
   <g id="patch_5">
    <path d="M 166.32 611.964 
L 1197.504 611.964 
" style="fill:none;stroke:#000000;stroke-linecap:square;stroke-linejoin:miter;stroke-width:0.8;"/>
   </g>
   <g id="patch_6">
    <path d="M 166.32 82.512 
L 1197.504 82.512 
" style="fill:none;stroke:#000000;stroke-linecap:square;stroke-linejoin:miter;stroke-width:0.8;"/>
   </g>
   <g id="text_21">
    <!-- Sequentie met herhaling -->
    <defs>
     <path d="M 43.796875 67.03125 
C 43.796875 68.8125 43.703125 68.921875 43.09375 68.921875 
C 42.5 68.921875 42.296875 68.515625 41.90625 67.625 
L 38.90625 61.046875 
C 35.09375 66.515625 29.296875 69 23 69 
C 12.796875 69 4.59375 60.953125 4.59375 50.828125 
C 4.59375 47.75 5.296875 43.375 8.703125 39.21875 
C 12.40625 34.65625 15.90625 33.859375 23.90625 31.765625 
C 26.90625 30.96875 31.90625 29.671875 32.90625 29.28125 
C 38.59375 26.90625 41.59375 20.953125 41.59375 15.390625 
C 41.59375 8.234375 36.5 0.59375 27.796875 0.59375 
C 17.09375 0.59375 7.09375 6.546875 6.40625 20.484375 
C 6.296875 22.078125 6.203125 22.171875 5.5 22.171875 
C 4.703125 22.171875 4.59375 22.078125 4.59375 20.078125 
L 4.59375 -0.015625 
C 4.59375 -1.796875 4.703125 -1.90625 5.296875 -1.90625 
C 6 -1.90625 6.203125 -1.40625 7.59375 1.6875 
C 7.703125 1.984375 7.703125 2.1875 9.59375 5.953125 
C 14.59375 -0.609375 23 -2 27.796875 -2 
C 38.703125 -2 46.40625 7.046875 46.40625 17.5625 
C 46.40625 22.71875 44.5 26.6875 43.40625 28.484375 
C 39.203125 34.84375 34.703125 36.03125 29.90625 37.21875 
C 29.203125 37.53125 29 37.53125 23.40625 38.90625 
C 18 40.296875 15.703125 41 13.203125 43.6875 
C 10.40625 46.75 9.40625 49.9375 9.40625 53.109375 
C 9.40625 59.5625 14.59375 66.609375 23.09375 66.609375 
C 33.703125 66.609375 40.296875 59.15625 41.796875 46.765625 
C 42.09375 44.96875 42.203125 44.875 42.90625 44.875 
C 43.796875 44.875 43.796875 45.171875 43.796875 46.859375 
z
" id="CMR17-83"/>
     <path d="M 41.09375 43.78125 
L 39.5 43.78125 
L 36.5 33.9375 
C 34.203125 39.203125 30 43.78125 23.296875 43.78125 
C 13.09375 43.78125 3.296875 34.734375 3.296875 21.609375 
C 3.296875 8.5625 12.5 -0.59375 22.5 -0.59375 
C 30.203125 -0.59375 34.5 5.28125 35.796875 7.46875 
L 35.796875 -12.328125 
C 35.796875 -16.109375 35.40625 -16.609375 29 -16.609375 
L 29 -19.1875 
C 31.40625 -19 35.796875 -19 38.40625 -19 
C 41 -19 45.5 -19 47.90625 -19.1875 
L 47.90625 -16.609375 
C 41.5 -16.609375 41.09375 -16.203125 41.09375 -12.328125 
z
M 36 13.84375 
C 36 9.5625 32.40625 5.578125 32.09375 5.28125 
C 29 1.796875 25.40625 1 23 1 
C 15.5 1 9.703125 10.453125 9.703125 21.484375 
C 9.703125 33.140625 16.296875 42 24 42 
C 32 42 36 32.9375 36 27.765625 
z
" id="CMR17-113"/>
     <path d="M 29.40625 42.078125 
L 29.40625 39.5 
C 35.296875 39.5 36.203125 38.890625 36.203125 34.15625 
L 36.203125 16.125 
C 36.203125 7.8125 31.703125 0.59375 24.296875 0.59375 
C 16.09375 0.59375 15.40625 5.4375 15.40625 10.59375 
L 15.40625 43.171875 
L 3.296875 42.078125 
L 3.296875 39.5 
C 7.296875 39.5 10 39.5 10.09375 35.53125 
L 10.09375 16.53125 
C 10.09375 9.890625 10.09375 5.640625 12.703125 2.859375 
C 14 1.578125 16.5 -1 23.703125 -1 
C 32.203125 -1 35.5 5.890625 36.296875 7.90625 
L 36.40625 7.90625 
L 36.40625 -0.984375 
L 48.296875 -0.984375 
L 48.296875 2 
C 42.40625 2 41.5 2.59375 41.5 7.390625 
L 41.5 43.171875 
z
" id="CMR17-117"/>
     <path d="M 15.09375 40 
L 29.09375 40 
L 29.09375 42.578125 
L 15.09375 42.578125 
L 15.09375 61 
L 13.296875 61 
C 13.09375 50.703125 9.59375 41.6875 1.09375 41.6875 
L 1.09375 40 
L 9.796875 40 
L 9.796875 12.046875 
C 9.796875 10.15625 9.796875 -1 21.40625 -1 
C 27.296875 -1 30.703125 4.78125 30.703125 12.140625 
L 30.703125 17.8125 
L 28.90625 17.8125 
L 28.90625 12.234375 
C 28.90625 5.375 26.203125 0.796875 22 0.796875 
C 19.09375 0.796875 15.09375 2.78125 15.09375 11.84375 
z
" id="CMR17-116"/>
     <path d="M 67.59375 30.203125 
C 67.59375 35.1875 66.703125 43.59375 54.796875 43.59375 
C 48 43.59375 43.296875 39 41.5 33.609375 
L 41.40625 33.609375 
C 40.203125 41.8125 34.296875 43.59375 28.703125 43.59375 
C 20.796875 43.59375 16.703125 37.5 15.203125 33.5 
L 15.09375 33.5 
L 15.09375 43.59375 
L 3.296875 42.5 
L 3.296875 39.90625 
C 9.203125 39.90625 10.09375 39.296875 10.09375 34.5 
L 10.09375 6.6875 
C 10.09375 2.875 9.703125 2.390625 3.296875 2.390625 
L 3.296875 -0.203125 
C 5.703125 0 10.09375 0 12.703125 0 
C 15.296875 0 19.796875 0 22.203125 -0.203125 
L 22.203125 2.390625 
C 15.796875 2.390625 15.40625 2.78125 15.40625 6.6875 
L 15.40625 25.90625 
C 15.40625 35.109375 21 42 28 42 
C 35.40625 42 36.203125 35.40625 36.203125 30.59375 
L 36.203125 6.6875 
C 36.203125 2.875 35.796875 2.390625 29.40625 2.390625 
L 29.40625 -0.203125 
C 31.796875 0 36.203125 0 38.796875 0 
C 41.40625 0 45.90625 0 48.296875 -0.203125 
L 48.296875 2.390625 
C 41.90625 2.390625 41.5 2.78125 41.5 6.6875 
L 41.5 25.90625 
C 41.5 35.109375 47.09375 42 54.09375 42 
C 61.5 42 62.296875 35.40625 62.296875 30.59375 
L 62.296875 6.6875 
C 62.296875 2.875 61.90625 2.390625 55.5 2.390625 
L 55.5 -0.203125 
C 57.90625 0 62.296875 0 64.90625 0 
C 67.5 0 72 0 74.40625 -0.203125 
L 74.40625 2.390625 
C 68 2.390625 67.59375 2.78125 67.59375 6.6875 
z
" id="CMR17-109"/>
     <path d="M 41.5 30.203125 
C 41.5 35.296875 40.5 43.59375 28.703125 43.59375 
C 20.5 43.59375 16.5 37 15.296875 33.703125 
L 15.203125 33.703125 
L 15.203125 68.6875 
L 3.296875 67.59375 
L 3.296875 65 
C 9.203125 65 10.09375 64.40625 10.09375 59.640625 
L 10.09375 6.65625 
C 10.09375 2.875 9.703125 2.390625 3.296875 2.390625 
L 3.296875 -0.203125 
C 5.703125 0 10.09375 0 12.703125 0 
C 15.296875 0 19.796875 0 22.203125 -0.203125 
L 22.203125 2.390625 
C 15.796875 2.390625 15.40625 2.78125 15.40625 6.6875 
L 15.40625 25.90625 
C 15.40625 35.109375 21 42 28 42 
C 35.40625 42 36.203125 35.40625 36.203125 30.59375 
L 36.203125 6.6875 
C 36.203125 2.875 35.796875 2.390625 29.40625 2.390625 
L 29.40625 -0.203125 
C 31.796875 0 36.203125 0 38.796875 0 
C 41.40625 0 45.90625 0 48.296875 -0.203125 
L 48.296875 2.390625 
C 41.90625 2.390625 41.5 2.78125 41.5 6.6875 
z
" id="CMR17-104"/>
     <path d="M 15 23.390625 
C 15 33 19.09375 42 26.59375 42 
C 27.296875 42 28 41.90625 28.703125 41.59375 
C 28.703125 41.59375 26.5 40.890625 26.5 38.3125 
C 26.5 35.90625 28.40625 34.90625 29.90625 34.90625 
C 31.09375 34.90625 33.296875 35.609375 33.296875 38.40625 
C 33.296875 41.609375 30.09375 43.59375 26.703125 43.59375 
C 19.09375 43.59375 15.796875 36.203125 14.796875 32.703125 
L 14.703125 32.703125 
L 14.703125 43.59375 
L 3.09375 42.5 
L 3.09375 39.90625 
C 9 39.90625 9.90625 39.296875 9.90625 34.5 
L 9.90625 6.6875 
C 9.90625 2.875 9.5 2.390625 3.09375 2.390625 
L 3.09375 -0.203125 
C 5.5 0 10.09375 0 12.703125 0 
C 15.59375 0 20.703125 0 23.40625 -0.203125 
L 23.40625 2.390625 
C 16.203125 2.390625 15 2.390625 15 6.875 
z
" id="CMR17-114"/>
     <path d="M 36 25.828125 
C 36 32.375 36 35.84375 31.796875 39.734375 
C 28.09375 43 23.796875 44 20.40625 44 
C 12.5 44 6.796875 37.609375 6.796875 30.796875 
C 6.796875 27 9.796875 27 10.40625 27 
C 11.703125 27 14 27.78125 14 30.53125 
C 14 33 12.09375 34.078125 10.40625 34.078125 
C 10 34.078125 9.5 33.96875 9.203125 33.875 
C 11.296875 40.5 16.703125 42.40625 20.203125 42.40625 
C 25.203125 42.40625 30.703125 37.953125 30.703125 29.453125 
L 30.703125 25 
C 24.796875 25 17.703125 24.203125 12.09375 21.203125 
C 5.796875 17.703125 4 12.703125 4 8.90625 
C 4 1.203125 13 -1 18.296875 -1 
C 23.796875 -1 28.90625 2.171875 31.09375 7.984375 
C 31.296875 3.640625 34.09375 -0.28125 38.5 -0.28125 
C 40.59375 -0.28125 45.90625 1.09375 45.90625 8.859375 
L 45.90625 14.375 
L 44.09375 14.375 
L 44.09375 8.78125 
C 44.09375 2.78125 41.40625 2 40.09375 2 
C 36 2 36 7.15625 36 11.53125 
z
M 30.703125 13.59375 
C 30.703125 4.953125 24.5 0.59375 19 0.59375 
C 14 0.59375 10.09375 4.296875 10.09375 8.90625 
C 10.09375 11.890625 11.40625 17.1875 17.203125 20.390625 
C 22 23.09375 27.5 23.5 30.703125 23.5 
z
" id="CMR17-97"/>
    </defs>
    <g transform="translate(543.326585 76.512)scale(0.288 -0.288)">
     <use transform="scale(0.996264)" xlink:href="#CMR17-83"/>
     <use transform="translate(50.89537 0)scale(0.996264)" xlink:href="#CMR17-101"/>
     <use transform="translate(91.38103 0)scale(0.996264)" xlink:href="#CMR17-113"/>
     <use transform="translate(139.673946 0)scale(0.996264)" xlink:href="#CMR17-117"/>
     <use transform="translate(190.569316 0)scale(0.996264)" xlink:href="#CMR17-101"/>
     <use transform="translate(231.054976 0)scale(0.996264)" xlink:href="#CMR17-110"/>
     <use transform="translate(279.347892 0)scale(0.996264)" xlink:href="#CMR17-116"/>
     <use transform="translate(314.62866 0)scale(0.996264)" xlink:href="#CMR17-105"/>
     <use transform="translate(339.499718 0)scale(0.996264)" xlink:href="#CMR17-101"/>
     <use transform="translate(410.061345 0)scale(0.996264)" xlink:href="#CMR17-109"/>
     <use transform="translate(486.980935 0)scale(0.996264)" xlink:href="#CMR17-101"/>
     <use transform="translate(527.466596 0)scale(0.996264)" xlink:href="#CMR17-116"/>
     <use transform="translate(592.82333 0)scale(0.996264)" xlink:href="#CMR17-104"/>
     <use transform="translate(643.7187 0)scale(0.996264)" xlink:href="#CMR17-101"/>
     <use transform="translate(684.20436 0)scale(0.996264)" xlink:href="#CMR17-114"/>
     <use transform="translate(719.485128 0)scale(0.996264)" xlink:href="#CMR17-104"/>
     <use transform="translate(770.380498 0)scale(0.996264)" xlink:href="#CMR17-97"/>
     <use transform="translate(816.070975 0)scale(0.996264)" xlink:href="#CMR17-108"/>
     <use transform="translate(840.942033 0)scale(0.996264)" xlink:href="#CMR17-105"/>
     <use transform="translate(865.813092 0)scale(0.996264)" xlink:href="#CMR17-110"/>
     <use transform="translate(916.708461 0)scale(0.996264)" xlink:href="#CMR17-103"/>
    </g>
   </g>
   <g id="legend_1">
    <g id="patch_7">
     <path d="M 183.12 599.964 
L 404.695847 599.964 
Q 409.495847 599.964 409.495847 595.164 
L 409.495847 430.310214 
Q 409.495847 425.510214 404.695847 425.510214 
L 183.12 425.510214 
Q 178.32 425.510214 178.32 430.310214 
L 178.32 595.164 
Q 178.32 599.964 183.12 599.964 
z
" style="fill:#ffffff;opacity:0.8;stroke:#cccccc;stroke-linejoin:miter;"/>
    </g>
    <g id="line2d_24">
     <path d="M 187.92 443.510214 
L 235.92 443.510214 
" style="fill:none;stroke:#0000e0;stroke-linecap:square;stroke-width:1.5;"/>
    </g>
    <g id="line2d_25"/>
    <g id="text_22">
     <!-- bow -->
     <defs>
      <path d="M 15 68.6875 
L 3.09375 67.59375 
L 3.09375 65 
C 9 65 9.90625 64.40625 9.90625 59.640625 
L 9.90625 -0.203125 
L 11.703125 -0.203125 
L 14.59375 6.890625 
C 17.5 2.203125 21.796875 -1 27.59375 -1 
C 37.59375 -1 47.703125 7.8125 47.703125 21.40625 
C 47.703125 34.1875 38.703125 43.59375 28.59375 43.59375 
C 22.40625 43.59375 18 40.296875 15 36.40625 
z
M 15.203125 31.3125 
C 15.203125 33.09375 15.203125 33.40625 16.59375 35.5 
C 20.5 41.515625 26.09375 42 28 42 
C 31 42 41.296875 40.390625 41.296875 21.5 
C 41.296875 1.6875 29.5 0.59375 27.09375 0.59375 
C 24 0.59375 19.5 1.78125 16.296875 7.59375 
C 15.203125 9.5 15.203125 9.703125 15.203125 11.484375 
z
" id="CMR17-98"/>
      <path d="M 58.203125 34.109375 
C 60.203125 40 64.203125 40 65.703125 40 
L 65.703125 42.6875 
C 63.703125 42.6875 61.703125 42.6875 59.703125 42.6875 
C 57.796875 42.6875 53.5 42.6875 51.796875 42.78125 
L 51.796875 40 
C 54.90625 40 56.59375 38.203125 56.59375 35.71875 
C 56.59375 35.015625 56.40625 34.125 56.203125 33.4375 
L 46.796875 6.359375 
L 36.59375 35.546875 
C 36.40625 36.234375 36.09375 37.03125 36.09375 37.421875 
C 36.09375 40 39.5 40 41.09375 40 
L 41.09375 42.78125 
C 38.796875 42.6875 34.59375 42.6875 32.203125 42.6875 
C 29.703125 42.6875 27.09375 42.6875 24.796875 42.78125 
L 24.796875 40 
C 30.296875 40 30.296875 39.796875 32.40625 33.578125 
L 23.203125 7.046875 
L 13.296875 35.640625 
C 12.796875 36.921875 12.796875 37.125 12.796875 37.421875 
C 12.796875 40 16.203125 40 17.796875 40 
L 17.796875 42.78125 
C 15.40625 42.6875 11.203125 42.6875 8.703125 42.6875 
C 6.5 42.6875 3.09375 42.6875 1 42.78125 
L 1 40 
C 5.40625 40 6.5 39.703125 7.59375 36.421875 
L 19.90625 0.765625 
C 20.296875 -0.515625 20.59375 -0.8125 21.40625 -0.8125 
C 22.09375 -0.8125 22.5 -0.609375 23 0.875 
L 33.296875 30.9375 
L 43.703125 0.875 
C 44.203125 -0.609375 44.59375 -0.8125 45.296875 -0.8125 
C 46.09375 -0.8125 46.40625 -0.515625 46.796875 0.78125 
z
" id="CMR17-119"/>
     </defs>
     <g transform="translate(255.12 451.910214)scale(0.24 -0.24)">
      <use transform="scale(0.996264)" xlink:href="#CMR17-98"/>
      <use transform="translate(53.497809 0)scale(0.996264)" xlink:href="#CMR17-111"/>
      <use transform="translate(96.585832 0)scale(0.996264)" xlink:href="#CMR17-119"/>
     </g>
    </g>
    <g id="line2d_26">
     <path d="M 187.92 476.960971 
L 235.92 476.960971 
" style="fill:none;stroke:#30eab2;stroke-linecap:square;stroke-width:1.5;"/>
    </g>
    <g id="line2d_27"/>
    <g id="text_23">
     <!-- states:3 -->
     <defs>
      <path d="M 16.59375 38.921875 
C 16.59375 41.40625 14.59375 43 12.5 43 
C 10.5 43 8.40625 41.40625 8.40625 38.921875 
C 8.40625 36.4375 10.40625 34.84375 12.5 34.84375 
C 14.5 34.84375 16.59375 36.4375 16.59375 38.921875 
z
M 16.59375 4.078125 
C 16.59375 6.5625 14.59375 8.15625 12.5 8.15625 
C 10.5 8.15625 8.40625 6.5625 8.40625 4.078125 
C 8.40625 1.59375 10.40625 0 12.5 0 
C 14.5 0 16.59375 1.59375 16.59375 4.078125 
z
" id="CMR17-58"/>
     </defs>
     <g transform="translate(255.12 485.360971)scale(0.24 -0.24)">
      <use transform="scale(0.996264)" xlink:href="#CMR17-115"/>
      <use transform="translate(35.801338 0)scale(0.996264)" xlink:href="#CMR17-116"/>
      <use transform="translate(71.082105 0)scale(0.996264)" xlink:href="#CMR17-97"/>
      <use transform="translate(116.772583 0)scale(0.996264)" xlink:href="#CMR17-116"/>
      <use transform="translate(152.05335 0)scale(0.996264)" xlink:href="#CMR17-101"/>
      <use transform="translate(192.539011 0)scale(0.996264)" xlink:href="#CMR17-115"/>
      <use transform="translate(228.340348 0)scale(0.996264)" xlink:href="#CMR17-58"/>
      <use transform="translate(253.211407 0)scale(0.996264)" xlink:href="#CMR17-51"/>
     </g>
    </g>
    <g id="line2d_28">
     <path d="M 187.92 510.411728 
L 235.92 510.411728 
" style="fill:none;stroke:#500050;stroke-linecap:square;stroke-width:1.5;"/>
    </g>
    <g id="line2d_29"/>
    <g id="text_24">
     <!-- interval:3 -->
     <defs>
      <path d="M 39.09375 33.796875 
C 40 36 41.59375 40 47.40625 40 
L 47.40625 42.59375 
C 45.5 42.59375 43 42.59375 41.09375 42.59375 
C 39 42.59375 35.703125 42.59375 33.703125 42.6875 
L 33.703125 40.09375 
C 36.203125 39.890625 37.59375 38.703125 37.59375 36.109375 
C 37.59375 35.203125 37.59375 35 37 33.609375 
L 26 5.890625 
L 14.09375 35.71875 
C 13.5 37.015625 13.5 37.203125 13.5 37.609375 
C 13.5 40 16.796875 40 18.296875 40 
L 18.296875 42.6875 
C 15.90625 42.59375 11.5 42.59375 9 42.59375 
C 6.296875 42.59375 3.203125 42.59375 1 42.6875 
L 1 40 
C 4.796875 40 6.90625 40 8.09375 36.90625 
L 22.59375 0.6875 
C 23.203125 -0.796875 23.296875 -1 24.203125 -1 
C 25.09375 -1 25.203125 -0.796875 25.796875 0.6875 
z
" id="CMR17-118"/>
     </defs>
     <g transform="translate(255.12 518.811728)scale(0.24 -0.24)">
      <use transform="scale(0.996264)" xlink:href="#CMR17-105"/>
      <use transform="translate(24.871058 0)scale(0.996264)" xlink:href="#CMR17-110"/>
      <use transform="translate(73.163974 0)scale(0.996264)" xlink:href="#CMR17-116"/>
      <use transform="translate(108.444742 0)scale(0.996264)" xlink:href="#CMR17-101"/>
      <use transform="translate(148.930403 0)scale(0.996264)" xlink:href="#CMR17-114"/>
      <use transform="translate(184.21117 0)scale(0.996264)" xlink:href="#CMR17-118"/>
      <use transform="translate(227.29927 0)scale(0.996264)" xlink:href="#CMR17-97"/>
      <use transform="translate(272.989747 0)scale(0.996264)" xlink:href="#CMR17-108"/>
      <use transform="translate(297.860805 0)scale(0.996264)" xlink:href="#CMR17-58"/>
      <use transform="translate(322.731864 0)scale(0.996264)" xlink:href="#CMR17-51"/>
     </g>
    </g>
    <g id="line2d_30">
     <path d="M 187.92 543.862485 
L 235.92 543.862485 
" style="fill:none;stroke:#ef00ff;stroke-linecap:square;stroke-width:1.5;"/>
    </g>
    <g id="line2d_31"/>
    <g id="text_25">
     <!-- interval:3+bow -->
     <defs>
      <path d="M 37.703125 23 
L 64.203125 23 
C 65.59375 23 67.296875 23 67.296875 24.6875 
C 67.296875 26.484375 65.703125 26.484375 64.203125 26.484375 
L 37.703125 26.484375 
L 37.703125 52.90625 
C 37.703125 54.296875 37.703125 56 36 56 
C 34.203125 56 34.203125 54.40625 34.203125 52.90625 
L 34.203125 26.484375 
L 7.703125 26.484375 
C 6.296875 26.484375 4.59375 26.484375 4.59375 24.796875 
C 4.59375 23 6.203125 23 7.703125 23 
L 34.203125 23 
L 34.203125 -3.40625 
C 34.203125 -4.796875 34.203125 -6.5 35.90625 -6.5 
C 37.703125 -6.5 37.703125 -4.90625 37.703125 -3.40625 
z
" id="CMR17-43"/>
     </defs>
     <g transform="translate(255.12 552.262485)scale(0.24 -0.24)">
      <use transform="scale(0.996264)" xlink:href="#CMR17-105"/>
      <use transform="translate(24.871058 0)scale(0.996264)" xlink:href="#CMR17-110"/>
      <use transform="translate(73.163974 0)scale(0.996264)" xlink:href="#CMR17-116"/>
      <use transform="translate(108.444742 0)scale(0.996264)" xlink:href="#CMR17-101"/>
      <use transform="translate(148.930403 0)scale(0.996264)" xlink:href="#CMR17-114"/>
      <use transform="translate(184.21117 0)scale(0.996264)" xlink:href="#CMR17-118"/>
      <use transform="translate(227.29927 0)scale(0.996264)" xlink:href="#CMR17-97"/>
      <use transform="translate(272.989747 0)scale(0.996264)" xlink:href="#CMR17-108"/>
      <use transform="translate(297.860805 0)scale(0.996264)" xlink:href="#CMR17-58"/>
      <use transform="translate(322.731864 0)scale(0.996264)" xlink:href="#CMR17-51"/>
      <use transform="translate(368.422341 0)scale(0.996264)" xlink:href="#CMR17-43"/>
      <use transform="translate(440.137129 0)scale(0.996264)" xlink:href="#CMR17-98"/>
      <use transform="translate(493.634938 0)scale(0.996264)" xlink:href="#CMR17-111"/>
      <use transform="translate(536.722961 0)scale(0.996264)" xlink:href="#CMR17-119"/>
     </g>
    </g>
    <g id="line2d_32">
     <path d="M 187.92 577.313243 
L 235.92 577.313243 
" style="fill:none;stroke:#000000;stroke-linecap:square;stroke-width:1.5;"/>
    </g>
    <g id="line2d_33"/>
    <g id="text_26">
     <!-- states:3+bow -->
     <g transform="translate(255.12 585.713243)scale(0.24 -0.24)">
      <use transform="scale(0.996264)" xlink:href="#CMR17-115"/>
      <use transform="translate(35.801338 0)scale(0.996264)" xlink:href="#CMR17-116"/>
      <use transform="translate(71.082105 0)scale(0.996264)" xlink:href="#CMR17-97"/>
      <use transform="translate(116.772583 0)scale(0.996264)" xlink:href="#CMR17-116"/>
      <use transform="translate(152.05335 0)scale(0.996264)" xlink:href="#CMR17-101"/>
      <use transform="translate(192.539011 0)scale(0.996264)" xlink:href="#CMR17-115"/>
      <use transform="translate(228.340348 0)scale(0.996264)" xlink:href="#CMR17-58"/>
      <use transform="translate(253.211407 0)scale(0.996264)" xlink:href="#CMR17-51"/>
      <use transform="translate(298.901884 0)scale(0.996264)" xlink:href="#CMR17-43"/>
      <use transform="translate(370.616672 0)scale(0.996264)" xlink:href="#CMR17-98"/>
      <use transform="translate(424.114481 0)scale(0.996264)" xlink:href="#CMR17-111"/>
      <use transform="translate(467.202504 0)scale(0.996264)" xlink:href="#CMR17-119"/>
     </g>
    </g>
   </g>
  </g>
 </g>
 <defs>
  <clipPath id="pd7300fa988">
   <rect height="529.452" width="1031.184" x="166.32" y="82.512"/>
  </clipPath>
 </defs>
</svg>
